<svg width="688" height="488" viewBox="0 0 688 488" fill="none" xmlns="http://www.w3.org/2000/svg">
<rect width="688" height="488" fill="white"/>
<rect x="39.5" y="196.5" width="93" height="95" fill="#3D3B8E" stroke="black"/>
<rect x="168.5" y="196.5" width="93" height="95" fill="#9D9C62" stroke="black"/>
<rect x="297.5" y="196.5" width="93" height="95" fill="white" stroke="black"/>
<rect x="426.5" y="196.5" width="93" height="95" fill="#009FB7" stroke="black"/>
<rect x="555.5" y="196.5" width="93" height="95" fill="#9D9C62" stroke="black"/>
<path d="M44.0568 88.2727H45.3182L48.2841 95.517H48.3864L51.3523 88.2727H52.6136V97H51.625V90.3693H51.5398L48.8125 97H47.858L45.1307 90.3693H45.0455V97H44.0568V88.2727ZM56.5224 97.1534C56.1076 97.1534 55.7312 97.0753 55.3931 96.919C55.055 96.7599 54.7866 96.5312 54.5877 96.233C54.3888 95.9318 54.2894 95.5682 54.2894 95.142C54.2894 94.767 54.3633 94.4631 54.511 94.2301C54.6587 93.9943 54.8562 93.8097 55.1033 93.6761C55.3505 93.5426 55.6232 93.4432 55.9215 93.3778C56.2227 93.3097 56.5252 93.2557 56.8292 93.2159C57.2269 93.1648 57.5494 93.1264 57.7965 93.1009C58.0465 93.0724 58.2283 93.0256 58.342 92.9602C58.4585 92.8949 58.5167 92.7812 58.5167 92.6193V92.5852C58.5167 92.1648 58.4016 91.8381 58.1715 91.6051C57.9442 91.3722 57.5991 91.2557 57.136 91.2557C56.6559 91.2557 56.2795 91.3608 56.0067 91.571C55.734 91.7812 55.5423 92.0057 55.4315 92.2443L54.4769 91.9034C54.6474 91.5057 54.8746 91.196 55.1587 90.9744C55.4457 90.75 55.7582 90.5937 56.0962 90.5057C56.4371 90.4148 56.7724 90.3693 57.1019 90.3693C57.3121 90.3693 57.5536 90.3949 57.8263 90.446C58.1019 90.4943 58.3675 90.5952 58.6232 90.7486C58.8817 90.902 59.0962 91.1335 59.2667 91.4432C59.4371 91.7528 59.5224 92.1676 59.5224 92.6875V97H58.5167V96.1136H58.4656C58.3974 96.2557 58.2837 96.4077 58.1246 96.5696C57.9656 96.7315 57.7539 96.8693 57.4897 96.983C57.2255 97.0966 56.9031 97.1534 56.5224 97.1534ZM56.6758 96.25C57.0735 96.25 57.4087 96.1719 57.6815 96.0156C57.957 95.8594 58.1644 95.6577 58.3036 95.4105C58.4457 95.1634 58.5167 94.9034 58.5167 94.6307V93.7102C58.4741 93.7614 58.3803 93.8082 58.2354 93.8509C58.0934 93.8906 57.9286 93.9261 57.7411 93.9574C57.5565 93.9858 57.3761 94.0114 57.1999 94.0341C57.0266 94.054 56.886 94.071 56.7781 94.0852C56.5167 94.1193 56.2724 94.1747 56.0451 94.2514C55.8207 94.3253 55.6388 94.4375 55.4996 94.5881C55.3633 94.7358 55.2951 94.9375 55.2951 95.1932C55.2951 95.5426 55.4244 95.8068 55.6829 95.9858C55.9442 96.1619 56.2752 96.25 56.6758 96.25ZM61.358 97V90.4545H62.3636V97H61.358ZM61.8693 89.3636C61.6733 89.3636 61.5043 89.2969 61.3622 89.1634C61.223 89.0298 61.1534 88.8693 61.1534 88.6818C61.1534 88.4943 61.223 88.3338 61.3622 88.2003C61.5043 88.0668 61.6733 88 61.8693 88C62.0653 88 62.233 88.0668 62.3722 88.2003C62.5142 88.3338 62.5852 88.4943 62.5852 88.6818C62.5852 88.8693 62.5142 89.0298 62.3722 89.1634C62.233 89.2969 62.0653 89.3636 61.8693 89.3636ZM65.2113 93.0625V97H64.2056V90.4545H65.1772V91.4773H65.2624C65.4158 91.1449 65.6488 90.8778 65.9613 90.6761C66.2738 90.4716 66.6772 90.3693 67.1715 90.3693C67.6147 90.3693 68.0025 90.4602 68.3349 90.642C68.6673 90.821 68.9258 91.0938 69.1104 91.4602C69.2951 91.8239 69.3874 92.2841 69.3874 92.8409V97H68.3817V92.9091C68.3817 92.3949 68.2482 91.9943 67.9812 91.7074C67.7141 91.4176 67.3477 91.2727 66.8817 91.2727C66.5607 91.2727 66.2738 91.3423 66.021 91.4815C65.771 91.6207 65.5735 91.8239 65.4286 92.0909C65.2837 92.358 65.2113 92.6818 65.2113 93.0625ZM74.7365 97V88.2727H77.7876C78.3956 88.2727 78.897 88.3778 79.2919 88.5881C79.6868 88.7955 79.9808 89.0753 80.174 89.4276C80.3672 89.777 80.4638 90.1648 80.4638 90.5909C80.4638 90.9659 80.397 91.2756 80.2635 91.5199C80.1328 91.7642 79.9595 91.9574 79.7436 92.0994C79.5305 92.2415 79.299 92.3466 79.049 92.4148V92.5C79.3161 92.517 79.5845 92.6108 79.8544 92.7812C80.1243 92.9517 80.3501 93.196 80.532 93.5142C80.7138 93.8324 80.8047 94.2216 80.8047 94.6818C80.8047 95.1193 80.7053 95.5128 80.5064 95.8622C80.3075 96.2116 79.9936 96.4886 79.5646 96.6932C79.1357 96.8977 78.5774 97 77.8899 97H74.7365ZM75.7933 96.0625H77.8899C78.5803 96.0625 79.0703 95.929 79.3601 95.6619C79.6527 95.392 79.799 95.0653 79.799 94.6818C79.799 94.3864 79.7237 94.1136 79.5732 93.8636C79.4226 93.6108 79.2081 93.4091 78.9297 93.2585C78.6513 93.1051 78.3217 93.0284 77.9411 93.0284H75.7933V96.0625ZM75.7933 92.108H77.7536C78.0717 92.108 78.3587 92.0455 78.6143 91.9205C78.8729 91.7955 79.0774 91.6193 79.228 91.392C79.3814 91.1648 79.4581 90.8977 79.4581 90.5909C79.4581 90.2074 79.3246 89.8821 79.0575 89.6151C78.7905 89.3452 78.3672 89.2102 77.7876 89.2102H75.7933V92.108ZM82.4048 97V90.4545H83.3764V91.4432H83.4446C83.5639 91.1193 83.7798 90.8565 84.0923 90.6548C84.4048 90.4531 84.7571 90.3523 85.1491 90.3523C85.223 90.3523 85.3153 90.3537 85.4261 90.3565C85.5369 90.3594 85.6207 90.3636 85.6776 90.3693V91.392C85.6435 91.3835 85.5653 91.3707 85.4432 91.3537C85.3239 91.3338 85.1974 91.3239 85.0639 91.3239C84.7457 91.3239 84.4616 91.3906 84.2116 91.5241C83.9645 91.6548 83.7685 91.8366 83.6236 92.0696C83.4815 92.2997 83.4105 92.5625 83.4105 92.858V97H82.4048ZM88.7958 97.1534C88.381 97.1534 88.0046 97.0753 87.6665 96.919C87.3285 96.7599 87.06 96.5312 86.8612 96.233C86.6623 95.9318 86.5629 95.5682 86.5629 95.142C86.5629 94.767 86.6367 94.4631 86.7844 94.2301C86.9322 93.9943 87.1296 93.8097 87.3768 93.6761C87.6239 93.5426 87.8967 93.4432 88.195 93.3778C88.4961 93.3097 88.7987 93.2557 89.1026 93.2159C89.5004 93.1648 89.8228 93.1264 90.07 93.1009C90.32 93.0724 90.5018 93.0256 90.6154 92.9602C90.7319 92.8949 90.7901 92.7812 90.7901 92.6193V92.5852C90.7901 92.1648 90.6751 91.8381 90.445 91.6051C90.2177 91.3722 89.8725 91.2557 89.4094 91.2557C88.9293 91.2557 88.5529 91.3608 88.2802 91.571C88.0075 91.7812 87.8157 92.0057 87.7049 92.2443L86.7504 91.9034C86.9208 91.5057 87.1481 91.196 87.4322 90.9744C87.7191 90.75 88.0316 90.5937 88.3697 90.5057C88.7106 90.4148 89.0458 90.3693 89.3754 90.3693C89.5856 90.3693 89.8271 90.3949 90.0998 90.446C90.3754 90.4943 90.641 90.5952 90.8967 90.7486C91.1552 90.902 91.3697 91.1335 91.5401 91.4432C91.7106 91.7528 91.7958 92.1676 91.7958 92.6875V97H90.7901V96.1136H90.739C90.6708 96.2557 90.5572 96.4077 90.3981 96.5696C90.239 96.7315 90.0273 96.8693 89.7631 96.983C89.4989 97.0966 89.1765 97.1534 88.7958 97.1534ZM88.9492 96.25C89.3469 96.25 89.6822 96.1719 89.9549 96.0156C90.2305 95.8594 90.4379 95.6577 90.5771 95.4105C90.7191 95.1634 90.7901 94.9034 90.7901 94.6307V93.7102C90.7475 93.7614 90.6538 93.8082 90.5089 93.8509C90.3668 93.8906 90.2021 93.9261 90.0146 93.9574C89.8299 93.9858 89.6495 94.0114 89.4734 94.0341C89.3001 94.054 89.1594 94.071 89.0515 94.0852C88.7901 94.1193 88.5458 94.1747 88.3185 94.2514C88.0941 94.3253 87.9123 94.4375 87.7731 94.5881C87.6367 94.7358 87.5685 94.9375 87.5685 95.1932C87.5685 95.5426 87.6978 95.8068 87.9563 95.9858C88.2177 96.1619 88.5487 96.25 88.9492 96.25ZM94.6371 93.0625V97H93.6314V90.4545H94.603V91.4773H94.6882C94.8416 91.1449 95.0746 90.8778 95.3871 90.6761C95.6996 90.4716 96.103 90.3693 96.5973 90.3693C97.0405 90.3693 97.4283 90.4602 97.7607 90.642C98.093 90.821 98.3516 91.0938 98.5362 91.4602C98.7209 91.8239 98.8132 92.2841 98.8132 92.8409V97H97.8075V92.9091C97.8075 92.3949 97.674 91.9943 97.407 91.7074C97.1399 91.4176 96.7734 91.2727 96.3075 91.2727C95.9865 91.2727 95.6996 91.3423 95.4467 91.4815C95.1967 91.6207 94.9993 91.8239 94.8544 92.0909C94.7095 92.358 94.6371 92.6818 94.6371 93.0625ZM103.123 97.1364C102.577 97.1364 102.096 96.9986 101.678 96.723C101.26 96.4446 100.934 96.0526 100.698 95.5469C100.462 95.0384 100.344 94.4375 100.344 93.7443C100.344 93.0568 100.462 92.4602 100.698 91.9545C100.934 91.4489 101.262 91.0582 101.682 90.7827C102.103 90.5071 102.588 90.3693 103.14 90.3693C103.566 90.3693 103.902 90.4403 104.15 90.5824C104.4 90.7216 104.59 90.8807 104.721 91.0597C104.854 91.2358 104.958 91.3807 105.032 91.4943H105.117V88.2727H106.123V97H105.151V95.9943H105.032C104.958 96.1136 104.853 96.2642 104.716 96.446C104.58 96.625 104.385 96.7855 104.132 96.9276C103.88 97.0668 103.543 97.1364 103.123 97.1364ZM103.259 96.233C103.662 96.233 104.003 96.1278 104.282 95.9176C104.56 95.7045 104.772 95.4105 104.917 95.0355C105.061 94.6577 105.134 94.2216 105.134 93.7273C105.134 93.2386 105.063 92.8111 104.921 92.4446C104.779 92.0753 104.569 91.7884 104.29 91.5838C104.012 91.3764 103.668 91.2727 103.259 91.2727C102.833 91.2727 102.478 91.3821 102.194 91.6009C101.912 91.8168 101.701 92.1108 101.559 92.483C101.419 92.8523 101.35 93.267 101.35 93.7273C101.35 94.1932 101.421 94.6165 101.563 94.9972C101.708 95.375 101.921 95.6761 102.202 95.9006C102.486 96.1222 102.838 96.233 103.259 96.233ZM118.638 91H117.581C117.519 90.696 117.409 90.429 117.253 90.1989C117.1 89.9688 116.912 89.7756 116.691 89.6193C116.472 89.4602 116.229 89.3409 115.962 89.2614C115.695 89.1818 115.417 89.142 115.127 89.142C114.598 89.142 114.12 89.2756 113.691 89.5426C113.265 89.8097 112.925 90.2031 112.672 90.723C112.422 91.2429 112.297 91.8807 112.297 92.6364C112.297 93.392 112.422 94.0298 112.672 94.5497C112.925 95.0696 113.265 95.4631 113.691 95.7301C114.12 95.9972 114.598 96.1307 115.127 96.1307C115.417 96.1307 115.695 96.0909 115.962 96.0114C116.229 95.9318 116.472 95.8139 116.691 95.6577C116.912 95.4986 117.1 95.304 117.253 95.0739C117.409 94.8409 117.519 94.5739 117.581 94.2727H118.638C118.559 94.7187 118.414 95.1179 118.203 95.4702C117.993 95.8224 117.732 96.1222 117.419 96.3693C117.107 96.6136 116.756 96.7997 116.367 96.9276C115.98 97.0554 115.567 97.1193 115.127 97.1193C114.382 97.1193 113.721 96.9375 113.141 96.5739C112.561 96.2102 112.105 95.6932 111.773 95.0227C111.441 94.3523 111.275 93.5568 111.275 92.6364C111.275 91.7159 111.441 90.9205 111.773 90.25C112.105 89.5795 112.561 89.0625 113.141 88.6989C113.721 88.3352 114.382 88.1534 115.127 88.1534C115.567 88.1534 115.98 88.2173 116.367 88.3452C116.756 88.473 117.107 88.6605 117.419 88.9077C117.732 89.152 117.993 89.4503 118.203 89.8026C118.414 90.152 118.559 90.5511 118.638 91ZM122.869 97.1364C122.278 97.1364 121.759 96.9957 121.313 96.7145C120.87 96.4332 120.523 96.0398 120.273 95.5341C120.026 95.0284 119.903 94.4375 119.903 93.7614C119.903 93.0795 120.026 92.4844 120.273 91.9759C120.523 91.4673 120.87 91.0724 121.313 90.7912C121.759 90.5099 122.278 90.3693 122.869 90.3693C123.46 90.3693 123.977 90.5099 124.42 90.7912C124.866 91.0724 125.212 91.4673 125.46 91.9759C125.71 92.4844 125.835 93.0795 125.835 93.7614C125.835 94.4375 125.71 95.0284 125.46 95.5341C125.212 96.0398 124.866 96.4332 124.42 96.7145C123.977 96.9957 123.46 97.1364 122.869 97.1364ZM122.869 96.233C123.317 96.233 123.687 96.1179 123.977 95.8878C124.266 95.6577 124.481 95.3551 124.62 94.9801C124.759 94.6051 124.829 94.1989 124.829 93.7614C124.829 93.3239 124.759 92.9162 124.62 92.5384C124.481 92.1605 124.266 91.8551 123.977 91.6222C123.687 91.3892 123.317 91.2727 122.869 91.2727C122.42 91.2727 122.05 91.3892 121.761 91.6222C121.471 91.8551 121.256 92.1605 121.117 92.5384C120.978 92.9162 120.908 93.3239 120.908 93.7614C120.908 94.1989 120.978 94.6051 121.117 94.9801C121.256 95.3551 121.471 95.6577 121.761 95.8878C122.05 96.1179 122.42 96.233 122.869 96.233ZM128.375 88.2727V97H127.37V88.2727H128.375ZM132.876 97.1364C132.286 97.1364 131.767 96.9957 131.321 96.7145C130.878 96.4332 130.531 96.0398 130.281 95.5341C130.034 95.0284 129.911 94.4375 129.911 93.7614C129.911 93.0795 130.034 92.4844 130.281 91.9759C130.531 91.4673 130.878 91.0724 131.321 90.7912C131.767 90.5099 132.286 90.3693 132.876 90.3693C133.467 90.3693 133.984 90.5099 134.428 90.7912C134.874 91.0724 135.22 91.4673 135.467 91.9759C135.717 92.4844 135.842 93.0795 135.842 93.7614C135.842 94.4375 135.717 95.0284 135.467 95.5341C135.22 96.0398 134.874 96.4332 134.428 96.7145C133.984 96.9957 133.467 97.1364 132.876 97.1364ZM132.876 96.233C133.325 96.233 133.695 96.1179 133.984 95.8878C134.274 95.6577 134.489 95.3551 134.628 94.9801C134.767 94.6051 134.837 94.1989 134.837 93.7614C134.837 93.3239 134.767 92.9162 134.628 92.5384C134.489 92.1605 134.274 91.8551 133.984 91.6222C133.695 91.3892 133.325 91.2727 132.876 91.2727C132.428 91.2727 132.058 91.3892 131.768 91.6222C131.479 91.8551 131.264 92.1605 131.125 92.5384C130.986 92.9162 130.916 93.3239 130.916 93.7614C130.916 94.1989 130.986 94.6051 131.125 94.9801C131.264 95.3551 131.479 95.6577 131.768 95.8878C132.058 96.1179 132.428 96.233 132.876 96.233ZM137.377 97V90.4545H138.349V91.4432H138.417C138.537 91.1193 138.752 90.8565 139.065 90.6548C139.377 90.4531 139.73 90.3523 140.122 90.3523C140.196 90.3523 140.288 90.3537 140.399 90.3565C140.51 90.3594 140.593 90.3636 140.65 90.3693V91.392C140.616 91.3835 140.538 91.3707 140.416 91.3537C140.297 91.3338 140.17 91.3239 140.037 91.3239C139.718 91.3239 139.434 91.3906 139.184 91.5241C138.937 91.6548 138.741 91.8366 138.596 92.0696C138.454 92.2997 138.383 92.5625 138.383 92.858V97H137.377ZM146.479 91.9205L145.575 92.1761C145.518 92.0256 145.435 91.8793 145.324 91.7372C145.216 91.5923 145.068 91.473 144.881 91.3793C144.693 91.2855 144.453 91.2386 144.161 91.2386C143.76 91.2386 143.426 91.331 143.159 91.5156C142.895 91.6974 142.763 91.929 142.763 92.2102C142.763 92.4602 142.854 92.6577 143.036 92.8026C143.217 92.9474 143.501 93.0682 143.888 93.1648L144.859 93.4034C145.445 93.5455 145.881 93.7628 146.168 94.0554C146.455 94.3452 146.598 94.7187 146.598 95.1761C146.598 95.5511 146.49 95.8864 146.274 96.1818C146.061 96.4773 145.763 96.7102 145.379 96.8807C144.996 97.0511 144.55 97.1364 144.041 97.1364C143.374 97.1364 142.821 96.9915 142.384 96.7017C141.946 96.4119 141.669 95.9886 141.553 95.4318L142.507 95.1932C142.598 95.5455 142.77 95.8097 143.023 95.9858C143.278 96.1619 143.612 96.25 144.024 96.25C144.493 96.25 144.865 96.1506 145.141 95.9517C145.419 95.75 145.558 95.5085 145.558 95.2273C145.558 95 145.479 94.8097 145.32 94.6562C145.161 94.5 144.916 94.3835 144.587 94.3068L143.496 94.0511C142.896 93.9091 142.456 93.6889 142.175 93.3906C141.896 93.0895 141.757 92.7131 141.757 92.2614C141.757 91.892 141.861 91.5653 142.068 91.2812C142.278 90.9972 142.564 90.7741 142.925 90.6122C143.288 90.4503 143.7 90.3693 144.161 90.3693C144.808 90.3693 145.317 90.5114 145.686 90.7955C146.058 91.0795 146.322 91.4545 146.479 91.9205Z" fill="black"/>
</svg>
