<svg width="628" height="428" viewBox="0 0 628 428" fill="none" xmlns="http://www.w3.org/2000/svg">
<rect width="628" height="428" fill="white"/>
<path d="M44.816 336.256C45.2213 336.32 45.5893 336.485 45.92 336.752C46.2613 337.019 46.528 337.349 46.72 337.744C46.9227 338.139 47.024 338.56 47.024 339.008C47.024 339.573 46.88 340.085 46.592 340.544C46.304 340.992 45.8827 341.349 45.328 341.616C44.784 341.872 44.1387 342 43.392 342H39.232V330.848H43.232C43.9893 330.848 44.6347 330.976 45.168 331.232C45.7013 331.477 46.1013 331.813 46.368 332.24C46.6347 332.667 46.768 333.147 46.768 333.68C46.768 334.341 46.5867 334.891 46.224 335.328C45.872 335.755 45.4027 336.064 44.816 336.256ZM40.688 335.664H43.136C43.8187 335.664 44.3467 335.504 44.72 335.184C45.0933 334.864 45.28 334.421 45.28 333.856C45.28 333.291 45.0933 332.848 44.72 332.528C44.3467 332.208 43.808 332.048 43.104 332.048H40.688V335.664ZM43.264 340.8C43.9893 340.8 44.5547 340.629 44.96 340.288C45.3653 339.947 45.568 339.472 45.568 338.864C45.568 338.245 45.3547 337.76 44.928 337.408C44.5013 337.045 43.9307 336.864 43.216 336.864H40.688V340.8H43.264ZM48.5005 337.584C48.5005 336.688 48.6818 335.904 49.0445 335.232C49.4072 334.549 49.9032 334.021 50.5325 333.648C51.1725 333.275 51.8818 333.088 52.6605 333.088C53.4285 333.088 54.0952 333.253 54.6605 333.584C55.2258 333.915 55.6472 334.331 55.9245 334.832V333.232H57.3965V342H55.9245V340.368C55.6365 340.88 55.2045 341.307 54.6285 341.648C54.0632 341.979 53.4018 342.144 52.6445 342.144C51.8658 342.144 51.1618 341.952 50.5325 341.568C49.9032 341.184 49.4072 340.645 49.0445 339.952C48.6818 339.259 48.5005 338.469 48.5005 337.584ZM55.9245 337.6C55.9245 336.939 55.7912 336.363 55.5245 335.872C55.2578 335.381 54.8952 335.008 54.4365 334.752C53.9885 334.485 53.4925 334.352 52.9485 334.352C52.4045 334.352 51.9085 334.48 51.4605 334.736C51.0125 334.992 50.6552 335.365 50.3885 335.856C50.1218 336.347 49.9885 336.923 49.9885 337.584C49.9885 338.256 50.1218 338.843 50.3885 339.344C50.6552 339.835 51.0125 340.213 51.4605 340.48C51.9085 340.736 52.4045 340.864 52.9485 340.864C53.4925 340.864 53.9885 340.736 54.4365 340.48C54.8952 340.213 55.2578 339.835 55.5245 339.344C55.7912 338.843 55.9245 338.261 55.9245 337.6ZM62.961 342.144C62.289 342.144 61.6863 342.032 61.153 341.808C60.6197 341.573 60.1983 341.253 59.889 340.848C59.5797 340.432 59.409 339.957 59.377 339.424H60.881C60.9237 339.861 61.1263 340.219 61.489 340.496C61.8623 340.773 62.3477 340.912 62.945 340.912C63.4997 340.912 63.937 340.789 64.257 340.544C64.577 340.299 64.737 339.989 64.737 339.616C64.737 339.232 64.5663 338.949 64.225 338.768C63.8837 338.576 63.3557 338.389 62.641 338.208C61.9903 338.037 61.457 337.867 61.041 337.696C60.6357 337.515 60.2837 337.253 59.985 336.912C59.697 336.56 59.553 336.101 59.553 335.536C59.553 335.088 59.6863 334.677 59.953 334.304C60.2197 333.931 60.5983 333.637 61.089 333.424C61.5797 333.2 62.1397 333.088 62.769 333.088C63.7397 333.088 64.5237 333.333 65.121 333.824C65.7183 334.315 66.0383 334.987 66.081 335.84H64.625C64.593 335.381 64.4063 335.013 64.065 334.736C63.7343 334.459 63.2863 334.32 62.721 334.32C62.1983 334.32 61.7823 334.432 61.473 334.656C61.1637 334.88 61.009 335.173 61.009 335.536C61.009 335.824 61.0997 336.064 61.281 336.256C61.473 336.437 61.7077 336.587 61.985 336.704C62.273 336.811 62.6677 336.933 63.169 337.072C63.7983 337.243 64.3103 337.413 64.705 337.584C65.0997 337.744 65.4357 337.989 65.713 338.32C66.001 338.651 66.1503 339.083 66.161 339.616C66.161 340.096 66.0277 340.528 65.761 340.912C65.4943 341.296 65.1157 341.6 64.625 341.824C64.145 342.037 63.5903 342.144 62.961 342.144ZM76.2164 337.28C76.2164 337.557 76.2004 337.851 76.1684 338.16H69.1604C69.2137 339.024 69.507 339.701 70.0404 340.192C70.5844 340.672 71.2404 340.912 72.0084 340.912C72.6377 340.912 73.1604 340.768 73.5764 340.48C74.003 340.181 74.3017 339.787 74.4724 339.296H76.0404C75.8057 340.139 75.3364 340.827 74.6324 341.36C73.9284 341.883 73.0537 342.144 72.0084 342.144C71.1764 342.144 70.4297 341.957 69.7684 341.584C69.1177 341.211 68.6057 340.683 68.2324 340C67.859 339.307 67.6724 338.507 67.6724 337.6C67.6724 336.693 67.8537 335.899 68.2164 335.216C68.579 334.533 69.0857 334.011 69.7364 333.648C70.3977 333.275 71.155 333.088 72.0084 333.088C72.8404 333.088 73.5764 333.269 74.2164 333.632C74.8564 333.995 75.347 334.496 75.6884 335.136C76.0404 335.765 76.2164 336.48 76.2164 337.28ZM74.7124 336.976C74.7124 336.421 74.5897 335.947 74.3444 335.552C74.099 335.147 73.763 334.843 73.3364 334.64C72.9204 334.427 72.4564 334.32 71.9444 334.32C71.2084 334.32 70.579 334.555 70.0564 335.024C69.5444 335.493 69.251 336.144 69.1764 336.976H74.7124ZM88.7079 330.848V332.032H83.8599V335.792H87.7959V336.976H83.8599V342H82.4039V330.848H88.7079ZM94.2904 342.144C93.469 342.144 92.7224 341.957 92.0504 341.584C91.389 341.211 90.8664 340.683 90.4824 340C90.109 339.307 89.9224 338.507 89.9224 337.6C89.9224 336.704 90.1144 335.915 90.4984 335.232C90.893 334.539 91.4264 334.011 92.0984 333.648C92.7704 333.275 93.5224 333.088 94.3544 333.088C95.1864 333.088 95.9384 333.275 96.6104 333.648C97.2824 334.011 97.8104 334.533 98.1944 335.216C98.589 335.899 98.7864 336.693 98.7864 337.6C98.7864 338.507 98.5837 339.307 98.1784 340C97.7837 340.683 97.245 341.211 96.5624 341.584C95.8797 341.957 95.1224 342.144 94.2904 342.144ZM94.2904 340.864C94.813 340.864 95.3037 340.741 95.7624 340.496C96.221 340.251 96.589 339.883 96.8664 339.392C97.1544 338.901 97.2984 338.304 97.2984 337.6C97.2984 336.896 97.1597 336.299 96.8824 335.808C96.605 335.317 96.2424 334.955 95.7944 334.72C95.3464 334.475 94.861 334.352 94.3384 334.352C93.805 334.352 93.3144 334.475 92.8664 334.72C92.429 334.955 92.077 335.317 91.8104 335.808C91.5437 336.299 91.4104 336.896 91.4104 337.6C91.4104 338.315 91.5384 338.917 91.7944 339.408C92.061 339.899 92.413 340.267 92.8504 340.512C93.2877 340.747 93.7677 340.864 94.2904 340.864ZM104.973 333.072C106.039 333.072 106.903 333.397 107.565 334.048C108.226 334.688 108.557 335.616 108.557 336.832V342H107.117V337.04C107.117 336.165 106.898 335.499 106.461 335.04C106.023 334.571 105.426 334.336 104.669 334.336C103.901 334.336 103.287 334.576 102.829 335.056C102.381 335.536 102.157 336.235 102.157 337.152V342H100.701V333.232H102.157V334.48C102.445 334.032 102.834 333.685 103.325 333.44C103.826 333.195 104.375 333.072 104.973 333.072ZM112.711 334.432V339.6C112.711 340.027 112.802 340.331 112.983 340.512C113.164 340.683 113.479 340.768 113.927 340.768H114.999V342H113.687C112.876 342 112.268 341.813 111.863 341.44C111.458 341.067 111.255 340.453 111.255 339.6V334.432H110.119V333.232H111.255V331.024H112.711V333.232H114.999V334.432H112.711ZM117.227 342.096C116.95 342.096 116.715 342 116.523 341.808C116.331 341.616 116.235 341.381 116.235 341.104C116.235 340.827 116.331 340.592 116.523 340.4C116.715 340.208 116.95 340.112 117.227 340.112C117.494 340.112 117.718 340.208 117.899 340.4C118.091 340.592 118.187 340.827 118.187 341.104C118.187 341.381 118.091 341.616 117.899 341.808C117.718 342 117.494 342.096 117.227 342.096ZM117.227 335.248C116.95 335.248 116.715 335.152 116.523 334.96C116.331 334.768 116.235 334.533 116.235 334.256C116.235 333.979 116.331 333.744 116.523 333.552C116.715 333.36 116.95 333.264 117.227 333.264C117.494 333.264 117.718 333.36 117.899 333.552C118.091 333.744 118.187 333.979 118.187 334.256C118.187 334.533 118.091 334.768 117.899 334.96C117.718 335.152 117.494 335.248 117.227 335.248ZM131.891 334.112C131.891 335.04 131.571 335.813 130.931 336.432C130.302 337.04 129.336 337.344 128.035 337.344H125.891V342H124.435V330.848H128.035C129.294 330.848 130.248 331.152 130.899 331.76C131.56 332.368 131.891 333.152 131.891 334.112ZM128.035 336.144C128.846 336.144 129.443 335.968 129.827 335.616C130.211 335.264 130.403 334.763 130.403 334.112C130.403 332.736 129.614 332.048 128.035 332.048H125.891V336.144H128.035ZM137.525 342.144C136.703 342.144 135.957 341.957 135.285 341.584C134.623 341.211 134.101 340.683 133.717 340C133.343 339.307 133.157 338.507 133.157 337.6C133.157 336.704 133.349 335.915 133.733 335.232C134.127 334.539 134.661 334.011 135.333 333.648C136.005 333.275 136.757 333.088 137.589 333.088C138.421 333.088 139.173 333.275 139.845 333.648C140.517 334.011 141.045 334.533 141.429 335.216C141.823 335.899 142.021 336.693 142.021 337.6C142.021 338.507 141.818 339.307 141.413 340C141.018 340.683 140.479 341.211 139.797 341.584C139.114 341.957 138.357 342.144 137.525 342.144ZM137.525 340.864C138.047 340.864 138.538 340.741 138.997 340.496C139.455 340.251 139.823 339.883 140.101 339.392C140.389 338.901 140.533 338.304 140.533 337.6C140.533 336.896 140.394 336.299 140.117 335.808C139.839 335.317 139.477 334.955 139.029 334.72C138.581 334.475 138.095 334.352 137.573 334.352C137.039 334.352 136.549 334.475 136.101 334.72C135.663 334.955 135.311 335.317 135.045 335.808C134.778 336.299 134.645 336.896 134.645 337.6C134.645 338.315 134.773 338.917 135.029 339.408C135.295 339.899 135.647 340.267 136.085 340.512C136.522 340.747 137.002 340.864 137.525 340.864ZM145.391 334.848C145.679 334.347 146.106 333.931 146.671 333.6C147.247 333.259 147.914 333.088 148.671 333.088C149.45 333.088 150.154 333.275 150.783 333.648C151.423 334.021 151.924 334.549 152.287 335.232C152.65 335.904 152.831 336.688 152.831 337.584C152.831 338.469 152.65 339.259 152.287 339.952C151.924 340.645 151.423 341.184 150.783 341.568C150.154 341.952 149.45 342.144 148.671 342.144C147.924 342.144 147.263 341.979 146.687 341.648C146.122 341.307 145.69 340.885 145.391 340.384V346.16H143.935V333.232H145.391V334.848ZM151.343 337.584C151.343 336.923 151.21 336.347 150.943 335.856C150.676 335.365 150.314 334.992 149.855 334.736C149.407 334.48 148.911 334.352 148.367 334.352C147.834 334.352 147.338 334.485 146.879 334.752C146.431 335.008 146.068 335.387 145.791 335.888C145.524 336.379 145.391 336.949 145.391 337.6C145.391 338.261 145.524 338.843 145.791 339.344C146.068 339.835 146.431 340.213 146.879 340.48C147.338 340.736 147.834 340.864 148.367 340.864C148.911 340.864 149.407 340.736 149.855 340.48C150.314 340.213 150.676 339.835 150.943 339.344C151.21 338.843 151.343 338.256 151.343 337.584ZM156.204 334.848C156.492 334.347 156.918 333.931 157.484 333.6C158.06 333.259 158.726 333.088 159.484 333.088C160.262 333.088 160.966 333.275 161.596 333.648C162.236 334.021 162.737 334.549 163.1 335.232C163.462 335.904 163.644 336.688 163.644 337.584C163.644 338.469 163.462 339.259 163.1 339.952C162.737 340.645 162.236 341.184 161.596 341.568C160.966 341.952 160.262 342.144 159.484 342.144C158.737 342.144 158.076 341.979 157.5 341.648C156.934 341.307 156.502 340.885 156.204 340.384V346.16H154.748V333.232H156.204V334.848ZM162.156 337.584C162.156 336.923 162.022 336.347 161.756 335.856C161.489 335.365 161.126 334.992 160.668 334.736C160.22 334.48 159.724 334.352 159.18 334.352C158.646 334.352 158.15 334.485 157.692 334.752C157.244 335.008 156.881 335.387 156.604 335.888C156.337 336.379 156.204 336.949 156.204 337.6C156.204 338.261 156.337 338.843 156.604 339.344C156.881 339.835 157.244 340.213 157.692 340.48C158.15 340.736 158.646 340.864 159.18 340.864C159.724 340.864 160.22 340.736 160.668 340.48C161.126 340.213 161.489 339.835 161.756 339.344C162.022 338.843 162.156 338.256 162.156 337.584ZM166.312 331.808C166.035 331.808 165.8 331.712 165.608 331.52C165.416 331.328 165.32 331.093 165.32 330.816C165.32 330.539 165.416 330.304 165.608 330.112C165.8 329.92 166.035 329.824 166.312 329.824C166.579 329.824 166.803 329.92 166.984 330.112C167.176 330.304 167.272 330.539 167.272 330.816C167.272 331.093 167.176 331.328 166.984 331.52C166.803 331.712 166.579 331.808 166.312 331.808ZM167.016 333.232V342H165.56V333.232H167.016ZM173.77 333.072C174.836 333.072 175.7 333.397 176.362 334.048C177.023 334.688 177.354 335.616 177.354 336.832V342H175.914V337.04C175.914 336.165 175.695 335.499 175.258 335.04C174.82 334.571 174.223 334.336 173.466 334.336C172.698 334.336 172.084 334.576 171.626 335.056C171.178 335.536 170.954 336.235 170.954 337.152V342H169.498V333.232H170.954V334.48C171.242 334.032 171.631 333.685 172.122 333.44C172.623 333.195 173.172 333.072 173.77 333.072ZM182.836 342.144C182.164 342.144 181.561 342.032 181.028 341.808C180.495 341.573 180.073 341.253 179.764 340.848C179.455 340.432 179.284 339.957 179.252 339.424H180.756C180.799 339.861 181.001 340.219 181.364 340.496C181.737 340.773 182.223 340.912 182.82 340.912C183.375 340.912 183.812 340.789 184.132 340.544C184.452 340.299 184.612 339.989 184.612 339.616C184.612 339.232 184.441 338.949 184.1 338.768C183.759 338.576 183.231 338.389 182.516 338.208C181.865 338.037 181.332 337.867 180.916 337.696C180.511 337.515 180.159 337.253 179.86 336.912C179.572 336.56 179.428 336.101 179.428 335.536C179.428 335.088 179.561 334.677 179.828 334.304C180.095 333.931 180.473 333.637 180.964 333.424C181.455 333.2 182.015 333.088 182.644 333.088C183.615 333.088 184.399 333.333 184.996 333.824C185.593 334.315 185.913 334.987 185.956 335.84H184.5C184.468 335.381 184.281 335.013 183.94 334.736C183.609 334.459 183.161 334.32 182.596 334.32C182.073 334.32 181.657 334.432 181.348 334.656C181.039 334.88 180.884 335.173 180.884 335.536C180.884 335.824 180.975 336.064 181.156 336.256C181.348 336.437 181.583 336.587 181.86 336.704C182.148 336.811 182.543 336.933 183.044 337.072C183.673 337.243 184.185 337.413 184.58 337.584C184.975 337.744 185.311 337.989 185.588 338.32C185.876 338.651 186.025 339.083 186.036 339.616C186.036 340.096 185.903 340.528 185.636 340.912C185.369 341.296 184.991 341.6 184.5 341.824C184.02 342.037 183.465 342.144 182.836 342.144ZM191.733 331.76V330.432H194.741V342H193.269V331.76H191.733ZM203.69 333.184C203.455 332 202.725 331.408 201.498 331.408C200.549 331.408 199.839 331.776 199.37 332.512C198.901 333.237 198.671 334.437 198.682 336.112C198.927 335.557 199.333 335.125 199.898 334.816C200.474 334.496 201.114 334.336 201.818 334.336C202.917 334.336 203.791 334.677 204.442 335.36C205.103 336.043 205.434 336.987 205.434 338.192C205.434 338.917 205.29 339.568 205.002 340.144C204.725 340.72 204.298 341.179 203.722 341.52C203.157 341.861 202.469 342.032 201.658 342.032C200.559 342.032 199.701 341.787 199.082 341.296C198.463 340.805 198.031 340.128 197.786 339.264C197.541 338.4 197.418 337.333 197.418 336.064C197.418 332.149 198.783 330.192 201.514 330.192C202.559 330.192 203.381 330.475 203.978 331.04C204.575 331.605 204.927 332.32 205.034 333.184H203.69ZM201.514 335.568C201.055 335.568 200.623 335.664 200.218 335.856C199.813 336.037 199.482 336.32 199.226 336.704C198.981 337.077 198.858 337.536 198.858 338.08C198.858 338.891 199.093 339.552 199.562 340.064C200.031 340.565 200.703 340.816 201.578 340.816C202.325 340.816 202.917 340.587 203.354 340.128C203.802 339.659 204.026 339.029 204.026 338.24C204.026 337.408 203.813 336.757 203.386 336.288C202.959 335.808 202.335 335.568 201.514 335.568ZM209.094 334.848C209.382 334.347 209.809 333.931 210.374 333.6C210.95 333.259 211.617 333.088 212.374 333.088C213.153 333.088 213.857 333.275 214.486 333.648C215.126 334.021 215.628 334.549 215.99 335.232C216.353 335.904 216.534 336.688 216.534 337.584C216.534 338.469 216.353 339.259 215.99 339.952C215.628 340.645 215.126 341.184 214.486 341.568C213.857 341.952 213.153 342.144 212.374 342.144C211.628 342.144 210.966 341.979 210.39 341.648C209.825 341.307 209.393 340.885 209.094 340.384V346.16H207.638V333.232H209.094V334.848ZM215.046 337.584C215.046 336.923 214.913 336.347 214.646 335.856C214.38 335.365 214.017 334.992 213.558 334.736C213.11 334.48 212.614 334.352 212.07 334.352C211.537 334.352 211.041 334.485 210.582 334.752C210.134 335.008 209.772 335.387 209.494 335.888C209.228 336.379 209.094 336.949 209.094 337.6C209.094 338.261 209.228 338.843 209.494 339.344C209.772 339.835 210.134 340.213 210.582 340.48C211.041 340.736 211.537 340.864 212.07 340.864C212.614 340.864 213.11 340.736 213.558 340.48C214.017 340.213 214.38 339.835 214.646 339.344C214.913 338.843 215.046 338.256 215.046 337.584ZM223.027 342L220.947 338.736L218.947 342H217.427L220.259 337.648L217.427 333.232H219.075L221.155 336.48L223.139 333.232H224.659L221.843 337.568L224.675 342H223.027Z" fill="black"/>
<path d="M46.742 110.496C45.4607 110.496 44.4687 110.145 43.766 109.442C43.1047 108.698 42.774 107.685 42.774 106.404V69.886C42.774 68.5633 43.1047 67.5507 43.766 66.848C44.4687 66.1453 45.4607 65.794 46.742 65.794C48.0233 65.794 48.9947 66.1453 49.656 66.848C50.3587 67.5507 50.71 68.5633 50.71 69.886V84.518H73.216V69.886C73.216 68.5633 73.5467 67.5507 74.208 66.848C74.9107 66.1453 75.9027 65.794 77.184 65.794C78.4653 65.794 79.4367 66.1453 80.098 66.848C80.8007 67.5507 81.152 68.5633 81.152 69.886V106.404C81.152 107.685 80.8007 108.698 80.098 109.442C79.4367 110.145 78.4653 110.496 77.184 110.496C75.9027 110.496 74.9107 110.145 74.208 109.442C73.5467 108.698 73.216 107.685 73.216 106.404V91.152H50.71V106.404C50.71 107.685 50.3793 108.698 49.718 109.442C49.0567 110.145 48.0647 110.496 46.742 110.496ZM95.6251 110C94.5505 110 93.7031 109.711 93.0831 109.132C92.5045 108.512 92.2151 107.685 92.2151 106.652C92.2151 105.577 92.5045 104.771 93.0831 104.234C93.7031 103.697 94.5505 103.428 95.6251 103.428H102.569V72.986H106.413L97.2991 78.504C96.5138 78.9587 95.7698 79.1447 95.0671 79.062C94.4058 78.938 93.8271 78.6487 93.3311 78.194C92.8765 77.698 92.5665 77.1193 92.4011 76.458C92.2358 75.7967 92.2771 75.1353 92.5251 74.474C92.8145 73.7713 93.3518 73.1927 94.1371 72.738L102.693 67.592C103.52 67.096 104.346 66.6827 105.173 66.352C106 65.98 106.764 65.794 107.467 65.794C108.335 65.794 109.058 66.042 109.637 66.538C110.216 66.9927 110.505 67.7573 110.505 68.832V103.428H116.829C117.904 103.428 118.73 103.697 119.309 104.234C119.929 104.771 120.239 105.577 120.239 106.652C120.239 107.727 119.929 108.553 119.309 109.132C118.73 109.711 117.904 110 116.829 110H95.6251ZM130.879 110.31C129.474 110.31 128.337 109.876 127.469 109.008C126.642 108.14 126.229 107.024 126.229 105.66C126.229 104.337 126.642 103.263 127.469 102.436C128.337 101.568 129.474 101.134 130.879 101.134C132.326 101.134 133.442 101.568 134.227 102.436C135.054 103.263 135.467 104.337 135.467 105.66C135.467 107.024 135.054 108.14 134.227 109.008C133.442 109.876 132.326 110.31 130.879 110.31ZM130.879 88.548C129.474 88.548 128.337 88.114 127.469 87.246C126.642 86.378 126.229 85.2827 126.229 83.96C126.229 82.596 126.642 81.5007 127.469 80.674C128.337 79.806 129.474 79.372 130.879 79.372C132.326 79.372 133.442 79.806 134.227 80.674C135.054 81.5007 135.467 82.596 135.467 83.96C135.467 85.2827 135.054 86.378 134.227 87.246C133.442 88.114 132.326 88.548 130.879 88.548ZM163.214 110.496C161.974 110.496 161.023 110.165 160.362 109.504C159.701 108.801 159.37 107.809 159.37 106.528V83.092C159.37 81.8107 159.701 80.8393 160.362 80.178C161.023 79.5167 161.953 79.186 163.152 79.186C164.351 79.186 165.281 79.5167 165.942 80.178C166.603 80.8393 166.934 81.8107 166.934 83.092V87.308L166.252 85.758C167.161 83.5673 168.567 81.914 170.468 80.798C172.411 79.6407 174.601 79.062 177.04 79.062C179.479 79.062 181.483 79.5167 183.054 80.426C184.625 81.3353 185.803 82.72 186.588 84.58C187.373 86.3987 187.766 88.7133 187.766 91.524V106.528C187.766 107.809 187.435 108.801 186.774 109.504C186.113 110.165 185.162 110.496 183.922 110.496C182.682 110.496 181.711 110.165 181.008 109.504C180.347 108.801 180.016 107.809 180.016 106.528V91.896C180.016 89.54 179.561 87.8247 178.652 86.75C177.784 85.6753 176.42 85.138 174.56 85.138C172.287 85.138 170.468 85.8613 169.104 87.308C167.781 88.7133 167.12 90.594 167.12 92.95V106.528C167.12 109.173 165.818 110.496 163.214 110.496ZM206.611 110.62C204.09 110.62 202.003 110.165 200.349 109.256C198.696 108.305 197.456 106.9 196.629 105.04C195.844 103.18 195.451 100.865 195.451 98.096V83.092C195.451 81.7693 195.782 80.798 196.443 80.178C197.105 79.5167 198.055 79.186 199.295 79.186C200.535 79.186 201.486 79.5167 202.147 80.178C202.85 80.798 203.201 81.7693 203.201 83.092V98.22C203.201 100.369 203.635 101.961 204.503 102.994C205.371 104.027 206.756 104.544 208.657 104.544C210.724 104.544 212.419 103.841 213.741 102.436C215.064 100.989 215.725 99.088 215.725 96.732V83.092C215.725 81.7693 216.056 80.798 216.717 80.178C217.379 79.5167 218.329 79.186 219.569 79.186C220.809 79.186 221.76 79.5167 222.421 80.178C223.124 80.798 223.475 81.7693 223.475 83.092V106.528C223.475 109.173 222.215 110.496 219.693 110.496C218.495 110.496 217.565 110.165 216.903 109.504C216.242 108.801 215.911 107.809 215.911 106.528V101.816L216.779 103.676C215.911 105.908 214.589 107.623 212.811 108.822C211.075 110.021 209.009 110.62 206.611 110.62ZM235.386 110.496C234.146 110.496 233.195 110.165 232.534 109.504C231.872 108.801 231.542 107.809 231.542 106.528V83.092C231.542 81.8107 231.872 80.8393 232.534 80.178C233.195 79.5167 234.125 79.186 235.324 79.186C236.522 79.186 237.452 79.5167 238.114 80.178C238.775 80.8393 239.106 81.8107 239.106 83.092V87.308L238.424 85.758C239.333 83.5673 240.738 81.914 242.64 80.798C244.582 79.6407 246.773 79.062 249.212 79.062C251.65 79.062 253.655 79.5167 255.226 80.426C256.796 81.3353 257.974 82.72 258.76 84.58C259.545 86.3987 259.938 88.7133 259.938 91.524V106.528C259.938 107.809 259.607 108.801 258.946 109.504C258.284 110.165 257.334 110.496 256.094 110.496C254.854 110.496 253.882 110.165 253.18 109.504C252.518 108.801 252.188 107.809 252.188 106.528V91.896C252.188 89.54 251.733 87.8247 250.824 86.75C249.956 85.6753 248.592 85.138 246.732 85.138C244.458 85.138 242.64 85.8613 241.276 87.308C239.953 88.7133 239.292 90.594 239.292 92.95V106.528C239.292 109.173 237.99 110.496 235.386 110.496ZM271.653 110.434C270.413 110.434 269.463 110.062 268.801 109.318C268.14 108.574 267.809 107.541 267.809 106.218V83.464C267.809 82.1 268.14 81.0667 268.801 80.364C269.463 79.62 270.413 79.248 271.653 79.248C272.893 79.248 273.844 79.62 274.505 80.364C275.208 81.0667 275.559 82.1 275.559 83.464V106.218C275.559 107.541 275.229 108.574 274.567 109.318C273.906 110.062 272.935 110.434 271.653 110.434ZM271.653 73.482C270.207 73.482 269.07 73.1307 268.243 72.428C267.458 71.684 267.065 70.6713 267.065 69.39C267.065 68.0673 267.458 67.0547 268.243 66.352C269.07 65.6493 270.207 65.298 271.653 65.298C273.141 65.298 274.278 65.6493 275.063 66.352C275.849 67.0547 276.241 68.0673 276.241 69.39C276.241 70.6713 275.849 71.684 275.063 72.428C274.278 73.1307 273.141 73.482 271.653 73.482ZM297.5 110.62C294.813 110.62 292.561 110.165 290.742 109.256C288.965 108.347 287.642 107.024 286.774 105.288C285.906 103.511 285.472 101.32 285.472 98.716V85.51H282.248C281.256 85.51 280.491 85.262 279.954 84.766C279.417 84.2287 279.148 83.5053 279.148 82.596C279.148 81.6453 279.417 80.922 279.954 80.426C280.491 79.93 281.256 79.682 282.248 79.682H285.472V74.04C285.472 72.7587 285.803 71.7873 286.464 71.126C287.167 70.4647 288.138 70.134 289.378 70.134C290.618 70.134 291.569 70.4647 292.23 71.126C292.891 71.7873 293.222 72.7587 293.222 74.04V79.682H299.794C300.786 79.682 301.551 79.93 302.088 80.426C302.625 80.922 302.894 81.6453 302.894 82.596C302.894 83.5053 302.625 84.2287 302.088 84.766C301.551 85.262 300.786 85.51 299.794 85.51H293.222V98.282C293.222 100.266 293.656 101.754 294.524 102.746C295.392 103.738 296.797 104.234 298.74 104.234C299.443 104.234 300.063 104.172 300.6 104.048C301.137 103.924 301.613 103.841 302.026 103.8C302.522 103.759 302.935 103.924 303.266 104.296C303.597 104.627 303.762 105.329 303.762 106.404C303.762 107.231 303.617 107.975 303.328 108.636C303.08 109.256 302.605 109.69 301.902 109.938C301.365 110.103 300.662 110.248 299.794 110.372C298.926 110.537 298.161 110.62 297.5 110.62ZM320.93 110.62C317.789 110.62 315.061 109.979 312.746 108.698C310.432 107.417 308.634 105.598 307.352 103.242C306.071 100.845 305.43 98.034 305.43 94.81C305.43 92.3713 305.782 90.2013 306.484 88.3C307.228 86.3573 308.282 84.704 309.646 83.34C311.01 81.9347 312.643 80.8807 314.544 80.178C316.446 79.434 318.574 79.062 320.93 79.062C324.072 79.062 326.8 79.7027 329.114 80.984C331.429 82.2653 333.227 84.084 334.508 86.44C335.79 88.796 336.43 91.586 336.43 94.81C336.43 97.2487 336.058 99.4393 335.314 101.382C334.612 103.325 333.578 104.999 332.214 106.404C330.85 107.768 329.218 108.822 327.316 109.566C325.415 110.269 323.286 110.62 320.93 110.62ZM320.93 104.73C322.46 104.73 323.803 104.358 324.96 103.614C326.118 102.87 327.006 101.775 327.626 100.328C328.288 98.84 328.618 97.0007 328.618 94.81C328.618 91.5033 327.916 89.044 326.51 87.432C325.105 85.7787 323.245 84.952 320.93 84.952C319.401 84.952 318.058 85.324 316.9 86.068C315.743 86.7707 314.834 87.866 314.172 89.354C313.552 90.8007 313.242 92.6193 313.242 94.81C313.242 98.0753 313.945 100.555 315.35 102.25C316.756 103.903 318.616 104.73 320.93 104.73ZM375.841 110.62C372.245 110.62 369.166 109.773 366.603 108.078C364.082 106.342 362.16 103.862 360.837 100.638C359.514 97.414 358.853 93.508 358.853 88.92C358.853 85.2 359.266 81.914 360.093 79.062C360.961 76.1687 362.201 73.73 363.813 71.746C365.425 69.762 367.388 68.2533 369.703 67.22C372.059 66.1867 374.704 65.67 377.639 65.67C379.458 65.67 381.297 65.9593 383.157 66.538C385.058 67.0753 386.836 67.902 388.489 69.018C389.15 69.4313 389.584 69.9687 389.791 70.63C389.998 71.2913 390.018 71.9527 389.853 72.614C389.729 73.234 389.44 73.792 388.985 74.288C388.572 74.7427 388.034 75.032 387.373 75.156C386.712 75.2387 385.988 75.0527 385.203 74.598C383.798 73.7713 382.475 73.1927 381.235 72.862C379.995 72.5313 378.755 72.366 377.515 72.366C375.118 72.366 373.092 72.924 371.439 74.04C369.786 75.156 368.525 76.83 367.657 79.062C366.83 81.294 366.417 84.084 366.417 87.432V92.082H365.673C366.004 89.974 366.686 88.176 367.719 86.688C368.794 85.1587 370.158 84.0013 371.811 83.216C373.464 82.3893 375.304 81.976 377.329 81.976C379.85 81.976 382.082 82.5753 384.025 83.774C385.968 84.9727 387.497 86.626 388.613 88.734C389.729 90.842 390.287 93.26 390.287 95.988C390.287 98.7987 389.667 101.32 388.427 103.552C387.228 105.743 385.534 107.479 383.343 108.76C381.194 110 378.693 110.62 375.841 110.62ZM375.407 104.296C376.895 104.296 378.197 103.965 379.313 103.304C380.47 102.643 381.359 101.713 381.979 100.514C382.599 99.274 382.909 97.8687 382.909 96.298C382.909 94.686 382.599 93.2807 381.979 92.082C381.359 90.8833 380.47 89.9533 379.313 89.292C378.197 88.5893 376.895 88.238 375.407 88.238C373.919 88.238 372.617 88.5893 371.501 89.292C370.385 89.9533 369.496 90.8833 368.835 92.082C368.215 93.2807 367.905 94.686 367.905 96.298C367.905 97.8687 368.215 99.274 368.835 100.514C369.496 101.713 370.385 102.643 371.501 103.304C372.617 103.965 373.919 104.296 375.407 104.296ZM401.051 110C399.728 110 398.757 109.711 398.137 109.132C397.558 108.512 397.269 107.623 397.269 106.466C397.269 105.763 397.455 105.081 397.827 104.42C398.199 103.759 398.736 103.056 399.439 102.312L411.901 89.044C413.802 87.06 415.166 85.262 415.993 83.65C416.819 81.9967 417.233 80.3433 417.233 78.69C417.233 76.6233 416.571 75.0527 415.249 73.978C413.967 72.9033 412.087 72.366 409.607 72.366C408.201 72.366 406.796 72.5727 405.391 72.986C403.985 73.358 402.559 74.0193 401.113 74.97C400.369 75.466 399.666 75.6727 399.005 75.59C398.385 75.5073 397.827 75.2387 397.331 74.784C396.876 74.3293 396.566 73.7713 396.401 73.11C396.235 72.4487 396.256 71.7873 396.463 71.126C396.711 70.4233 397.207 69.824 397.951 69.328C399.728 68.1293 401.712 67.22 403.903 66.6C406.135 65.98 408.367 65.67 410.599 65.67C413.74 65.67 416.385 66.1453 418.535 67.096C420.684 68.0467 422.317 69.4313 423.433 71.25C424.549 73.0687 425.107 75.28 425.107 77.884C425.107 79.62 424.817 81.3147 424.239 82.968C423.701 84.6213 422.854 86.2953 421.697 87.99C420.581 89.6847 419.113 91.4827 417.295 93.384L405.639 105.536V103.428H423.867C424.983 103.428 425.83 103.697 426.409 104.234C426.987 104.771 427.277 105.577 427.277 106.652C427.277 107.727 426.987 108.553 426.409 109.132C425.83 109.711 424.983 110 423.867 110H401.051ZM437.854 121.656C436.614 121.656 435.664 121.325 435.002 120.664C434.341 120.003 434.01 119.031 434.01 117.75V83.092C434.01 81.8107 434.341 80.8393 435.002 80.178C435.664 79.5167 436.594 79.186 437.792 79.186C439.032 79.186 439.983 79.5167 440.644 80.178C441.306 80.8393 441.636 81.8107 441.636 83.092V87.928L440.954 86.068C441.574 83.96 442.835 82.2653 444.736 80.984C446.679 79.7027 448.932 79.062 451.494 79.062C454.14 79.062 456.454 79.7027 458.438 80.984C460.464 82.2653 462.034 84.084 463.15 86.44C464.266 88.7547 464.824 91.5447 464.824 94.81C464.824 98.034 464.266 100.845 463.15 103.242C462.034 105.598 460.484 107.417 458.5 108.698C456.516 109.979 454.181 110.62 451.494 110.62C448.973 110.62 446.762 110 444.86 108.76C442.959 107.479 441.678 105.825 441.016 103.8H441.76V117.75C441.76 119.031 441.409 120.003 440.706 120.664C440.045 121.325 439.094 121.656 437.854 121.656ZM449.324 104.73C450.854 104.73 452.197 104.358 453.354 103.614C454.512 102.87 455.4 101.775 456.02 100.328C456.682 98.84 457.012 97.0007 457.012 94.81C457.012 91.5033 456.31 89.044 454.904 87.432C453.499 85.7787 451.639 84.952 449.324 84.952C447.795 84.952 446.452 85.324 445.294 86.068C444.137 86.7707 443.228 87.866 442.566 89.354C441.946 90.8007 441.636 92.6193 441.636 94.81C441.636 98.0753 442.339 100.555 443.744 102.25C445.15 103.903 447.01 104.73 449.324 104.73ZM472.507 110.31C471.598 110.31 470.833 110.062 470.213 109.566C469.634 109.029 469.324 108.347 469.283 107.52C469.283 106.693 469.634 105.825 470.337 104.916L480.381 92.516V96.174L470.957 84.58C470.213 83.6707 469.862 82.8027 469.903 81.976C469.944 81.1493 470.254 80.488 470.833 79.992C471.453 79.4547 472.218 79.186 473.127 79.186C474.078 79.186 474.863 79.3513 475.483 79.682C476.144 80.0127 476.744 80.5293 477.281 81.232L484.721 90.78H481.993L489.495 81.232C490.074 80.5293 490.673 80.0127 491.293 79.682C491.913 79.3513 492.678 79.186 493.587 79.186C494.538 79.186 495.302 79.4547 495.881 79.992C496.46 80.5293 496.749 81.2113 496.749 82.038C496.79 82.8647 496.439 83.7327 495.695 84.642L486.333 96.112V92.64L496.377 104.916C497.121 105.784 497.472 106.631 497.431 107.458C497.39 108.285 497.059 108.967 496.439 109.504C495.86 110.041 495.096 110.31 494.145 110.31C493.236 110.31 492.471 110.145 491.851 109.814C491.231 109.483 490.632 108.967 490.053 108.264L481.993 98.096H484.597L476.599 108.264C476.062 108.925 475.483 109.442 474.863 109.814C474.243 110.145 473.458 110.31 472.507 110.31Z" fill="black"/>
<path d="M44.768 190.384C43.776 190.384 43.008 190.112 42.464 189.568C41.952 188.992 41.696 188.208 41.696 187.216V158.944C41.696 157.92 41.952 157.136 42.464 156.592C43.008 156.048 43.776 155.776 44.768 155.776C45.76 155.776 46.512 156.048 47.024 156.592C47.568 157.136 47.84 157.92 47.84 158.944V170.272H65.264V158.944C65.264 157.92 65.52 157.136 66.032 156.592C66.576 156.048 67.344 155.776 68.336 155.776C69.328 155.776 70.08 156.048 70.592 156.592C71.136 157.136 71.408 157.92 71.408 158.944V187.216C71.408 188.208 71.136 188.992 70.592 189.568C70.08 190.112 69.328 190.384 68.336 190.384C67.344 190.384 66.576 190.112 66.032 189.568C65.52 188.992 65.264 188.208 65.264 187.216V175.408H47.84V187.216C47.84 188.208 47.584 188.992 47.072 189.568C46.56 190.112 45.792 190.384 44.768 190.384ZM81.509 190C80.485 190 79.733 189.776 79.253 189.328C78.805 188.848 78.581 188.16 78.581 187.264C78.581 186.72 78.725 186.192 79.013 185.68C79.301 185.168 79.717 184.624 80.261 184.048L89.909 173.776C91.381 172.24 92.437 170.848 93.077 169.6C93.717 168.32 94.037 167.04 94.037 165.76C94.037 164.16 93.525 162.944 92.501 162.112C91.509 161.28 90.053 160.864 88.133 160.864C87.045 160.864 85.957 161.024 84.869 161.344C83.781 161.632 82.677 162.144 81.557 162.88C80.981 163.264 80.437 163.424 79.925 163.36C79.445 163.296 79.013 163.088 78.629 162.736C78.277 162.384 78.037 161.952 77.909 161.44C77.781 160.928 77.797 160.416 77.957 159.904C78.149 159.36 78.533 158.896 79.109 158.512C80.485 157.584 82.021 156.88 83.717 156.4C85.445 155.92 87.173 155.68 88.901 155.68C91.333 155.68 93.381 156.048 95.045 156.784C96.709 157.52 97.973 158.592 98.837 160C99.701 161.408 100.133 163.12 100.133 165.136C100.133 166.48 99.909 167.792 99.461 169.072C99.045 170.352 98.389 171.648 97.493 172.96C96.629 174.272 95.493 175.664 94.085 177.136L85.061 186.544V184.912H99.173C100.037 184.912 100.693 185.12 101.141 185.536C101.589 185.952 101.813 186.576 101.813 187.408C101.813 188.24 101.589 188.88 101.141 189.328C100.693 189.776 100.037 190 99.173 190H81.509ZM109.906 190.24C108.818 190.24 107.938 189.904 107.266 189.232C106.626 188.56 106.306 187.696 106.306 186.64C106.306 185.616 106.626 184.784 107.266 184.144C107.938 183.472 108.818 183.136 109.906 183.136C111.026 183.136 111.89 183.472 112.498 184.144C113.138 184.784 113.458 185.616 113.458 186.64C113.458 187.696 113.138 188.56 112.498 189.232C111.89 189.904 111.026 190.24 109.906 190.24ZM109.906 173.392C108.818 173.392 107.938 173.056 107.266 172.384C106.626 171.712 106.306 170.864 106.306 169.84C106.306 168.784 106.626 167.936 107.266 167.296C107.938 166.624 108.818 166.288 109.906 166.288C111.026 166.288 111.89 166.624 112.498 167.296C113.138 167.936 113.458 168.784 113.458 169.84C113.458 170.864 113.138 171.712 112.498 172.384C111.89 173.056 111.026 173.392 109.906 173.392ZM134.94 190.384C133.98 190.384 133.244 190.128 132.732 189.616C132.22 189.072 131.964 188.304 131.964 187.312V169.168C131.964 168.176 132.22 167.424 132.732 166.912C133.244 166.4 133.964 166.144 134.892 166.144C135.82 166.144 136.54 166.4 137.052 166.912C137.564 167.424 137.82 168.176 137.82 169.168V172.432L137.292 171.232C137.996 169.536 139.084 168.256 140.556 167.392C142.06 166.496 143.756 166.048 145.644 166.048C147.532 166.048 149.084 166.4 150.3 167.104C151.516 167.808 152.428 168.88 153.036 170.32C153.644 171.728 153.948 173.52 153.948 175.696V187.312C153.948 188.304 153.692 189.072 153.18 189.616C152.668 190.128 151.932 190.384 150.972 190.384C150.012 190.384 149.26 190.128 148.716 189.616C148.204 189.072 147.948 188.304 147.948 187.312V175.984C147.948 174.16 147.596 172.832 146.892 172C146.22 171.168 145.164 170.752 143.724 170.752C141.964 170.752 140.556 171.312 139.5 172.432C138.476 173.52 137.964 174.976 137.964 176.8V187.312C137.964 189.36 136.956 190.384 134.94 190.384ZM168.538 190.48C166.586 190.48 164.97 190.128 163.69 189.424C162.41 188.688 161.45 187.6 160.81 186.16C160.202 184.72 159.898 182.928 159.898 180.784V169.168C159.898 168.144 160.154 167.392 160.666 166.912C161.178 166.4 161.914 166.144 162.874 166.144C163.834 166.144 164.57 166.4 165.082 166.912C165.626 167.392 165.898 168.144 165.898 169.168V180.88C165.898 182.544 166.234 183.776 166.906 184.576C167.578 185.376 168.65 185.776 170.122 185.776C171.722 185.776 173.034 185.232 174.058 184.144C175.082 183.024 175.594 181.552 175.594 179.728V169.168C175.594 168.144 175.85 167.392 176.362 166.912C176.874 166.4 177.61 166.144 178.57 166.144C179.53 166.144 180.266 166.4 180.778 166.912C181.322 167.392 181.594 168.144 181.594 169.168V187.312C181.594 189.36 180.618 190.384 178.666 190.384C177.738 190.384 177.018 190.128 176.506 189.616C175.994 189.072 175.738 188.304 175.738 187.312V183.664L176.41 185.104C175.738 186.832 174.714 188.16 173.338 189.088C171.994 190.016 170.394 190.48 168.538 190.48ZM190.815 190.384C189.855 190.384 189.119 190.128 188.607 189.616C188.095 189.072 187.839 188.304 187.839 187.312V169.168C187.839 168.176 188.095 167.424 188.607 166.912C189.119 166.4 189.839 166.144 190.767 166.144C191.695 166.144 192.415 166.4 192.927 166.912C193.439 167.424 193.695 168.176 193.695 169.168V172.432L193.167 171.232C193.871 169.536 194.959 168.256 196.431 167.392C197.935 166.496 199.631 166.048 201.519 166.048C203.407 166.048 204.959 166.4 206.175 167.104C207.391 167.808 208.303 168.88 208.911 170.32C209.519 171.728 209.823 173.52 209.823 175.696V187.312C209.823 188.304 209.567 189.072 209.055 189.616C208.543 190.128 207.807 190.384 206.847 190.384C205.887 190.384 205.135 190.128 204.591 189.616C204.079 189.072 203.823 188.304 203.823 187.312V175.984C203.823 174.16 203.471 172.832 202.767 172C202.095 171.168 201.039 170.752 199.599 170.752C197.839 170.752 196.431 171.312 195.375 172.432C194.351 173.52 193.839 174.976 193.839 176.8V187.312C193.839 189.36 192.831 190.384 190.815 190.384ZM218.893 190.336C217.933 190.336 217.197 190.048 216.685 189.472C216.173 188.896 215.917 188.096 215.917 187.072V169.456C215.917 168.4 216.173 167.6 216.685 167.056C217.197 166.48 217.933 166.192 218.893 166.192C219.853 166.192 220.589 166.48 221.101 167.056C221.645 167.6 221.917 168.4 221.917 169.456V187.072C221.917 188.096 221.661 188.896 221.149 189.472C220.637 190.048 219.885 190.336 218.893 190.336ZM218.893 161.728C217.773 161.728 216.893 161.456 216.253 160.912C215.645 160.336 215.341 159.552 215.341 158.56C215.341 157.536 215.645 156.752 216.253 156.208C216.893 155.664 217.773 155.392 218.893 155.392C220.045 155.392 220.925 155.664 221.533 156.208C222.141 156.752 222.445 157.536 222.445 158.56C222.445 159.552 222.141 160.336 221.533 160.912C220.925 161.456 220.045 161.728 218.893 161.728ZM238.903 190.48C236.823 190.48 235.079 190.128 233.671 189.424C232.295 188.72 231.271 187.696 230.599 186.352C229.927 184.976 229.591 183.28 229.591 181.264V171.04H227.095C226.327 171.04 225.735 170.848 225.319 170.464C224.903 170.048 224.695 169.488 224.695 168.784C224.695 168.048 224.903 167.488 225.319 167.104C225.735 166.72 226.327 166.528 227.095 166.528H229.591V162.16C229.591 161.168 229.847 160.416 230.359 159.904C230.903 159.392 231.655 159.136 232.615 159.136C233.575 159.136 234.311 159.392 234.823 159.904C235.335 160.416 235.591 161.168 235.591 162.16V166.528H240.679C241.447 166.528 242.039 166.72 242.455 167.104C242.871 167.488 243.079 168.048 243.079 168.784C243.079 169.488 242.871 170.048 242.455 170.464C242.039 170.848 241.447 171.04 240.679 171.04H235.591V180.928C235.591 182.464 235.927 183.616 236.599 184.384C237.271 185.152 238.359 185.536 239.863 185.536C240.407 185.536 240.887 185.488 241.303 185.392C241.719 185.296 242.087 185.232 242.407 185.2C242.791 185.168 243.111 185.296 243.367 185.584C243.623 185.84 243.751 186.384 243.751 187.216C243.751 187.856 243.639 188.432 243.415 188.944C243.223 189.424 242.855 189.76 242.311 189.952C241.895 190.08 241.351 190.192 240.679 190.288C240.007 190.416 239.415 190.48 238.903 190.48ZM257.043 190.48C254.611 190.48 252.499 189.984 250.707 188.992C248.915 188 247.523 186.592 246.531 184.768C245.539 182.912 245.043 180.736 245.043 178.24C245.043 176.352 245.315 174.672 245.859 173.2C246.435 171.696 247.251 170.416 248.307 169.36C249.363 168.272 250.627 167.456 252.099 166.912C253.571 166.336 255.219 166.048 257.043 166.048C259.475 166.048 261.587 166.544 263.379 167.536C265.171 168.528 266.563 169.936 267.555 171.76C268.547 173.584 269.043 175.744 269.043 178.24C269.043 180.128 268.755 181.824 268.179 183.328C267.635 184.832 266.835 186.128 265.779 187.216C264.723 188.272 263.459 189.088 261.987 189.664C260.515 190.208 258.867 190.48 257.043 190.48ZM257.043 185.92C258.227 185.92 259.267 185.632 260.163 185.056C261.059 184.48 261.747 183.632 262.227 182.512C262.739 181.36 262.995 179.936 262.995 178.24C262.995 175.68 262.451 173.776 261.363 172.528C260.275 171.248 258.835 170.608 257.043 170.608C255.859 170.608 254.819 170.896 253.923 171.472C253.027 172.016 252.323 172.864 251.811 174.016C251.331 175.136 251.091 176.544 251.091 178.24C251.091 180.768 251.635 182.688 252.723 184C253.811 185.28 255.251 185.92 257.043 185.92ZM303.73 190.384C302.77 190.384 302.018 190.128 301.474 189.616C300.93 189.072 300.658 188.304 300.658 187.312V183.568H288.802C287.81 183.568 287.01 183.36 286.402 182.944C285.826 182.528 285.538 181.872 285.538 180.976C285.538 180.464 285.666 179.904 285.922 179.296C286.21 178.688 286.706 177.888 287.41 176.896L300.562 157.84C301.01 157.168 301.506 156.656 302.05 156.304C302.594 155.952 303.218 155.776 303.922 155.776C304.754 155.776 305.442 156.032 305.986 156.544C306.53 157.024 306.802 157.792 306.802 158.848V178.48H309.154C310.082 178.48 310.77 178.704 311.218 179.152C311.698 179.568 311.938 180.192 311.938 181.024C311.938 181.856 311.698 182.496 311.218 182.944C310.77 183.36 310.082 183.568 309.154 183.568H306.802V187.312C306.802 188.304 306.53 189.072 305.986 189.616C305.442 190.128 304.69 190.384 303.73 190.384ZM300.658 178.48V163.504H302.05L290.722 180.112V178.48H300.658ZM327.088 190.48C324.464 190.48 322.208 190.112 320.32 189.376C318.464 188.608 317.024 187.504 316 186.064C315.008 184.624 314.512 182.896 314.512 180.88C314.512 179.28 314.832 177.872 315.472 176.656C316.144 175.408 317.056 174.4 318.208 173.632C319.36 172.864 320.672 172.384 322.144 172.192V173.2C320.096 172.752 318.448 171.776 317.2 170.272C315.984 168.736 315.376 166.912 315.376 164.8C315.376 162.88 315.856 161.248 316.816 159.904C317.776 158.528 319.136 157.488 320.896 156.784C322.656 156.048 324.72 155.68 327.088 155.68C329.488 155.68 331.568 156.048 333.328 156.784C335.088 157.488 336.448 158.528 337.408 159.904C338.368 161.248 338.848 162.88 338.848 164.8C338.848 166.208 338.56 167.504 337.984 168.688C337.44 169.872 336.656 170.848 335.632 171.616C334.64 172.384 333.472 172.896 332.128 173.152V172.192C334.368 172.512 336.176 173.456 337.552 175.024C338.96 176.56 339.664 178.512 339.664 180.88C339.664 182.896 339.152 184.624 338.128 186.064C337.136 187.504 335.696 188.608 333.808 189.376C331.952 190.112 329.712 190.48 327.088 190.48ZM327.088 185.68C329.36 185.68 331.072 185.248 332.224 184.384C333.376 183.488 333.952 182.176 333.952 180.448C333.952 178.72 333.376 177.424 332.224 176.56C331.072 175.696 329.36 175.264 327.088 175.264C324.848 175.264 323.136 175.696 321.952 176.56C320.8 177.424 320.224 178.72 320.224 180.448C320.224 182.176 320.8 183.488 321.952 184.384C323.136 185.248 324.848 185.68 327.088 185.68ZM327.088 170.464C328.368 170.464 329.456 170.272 330.352 169.888C331.248 169.472 331.936 168.88 332.416 168.112C332.896 167.344 333.136 166.448 333.136 165.424C333.136 163.888 332.592 162.688 331.504 161.824C330.448 160.928 328.976 160.48 327.088 160.48C325.2 160.48 323.728 160.928 322.672 161.824C321.616 162.688 321.088 163.888 321.088 165.424C321.088 166.992 321.616 168.224 322.672 169.12C323.728 170.016 325.2 170.464 327.088 170.464ZM347.565 199.024C346.605 199.024 345.869 198.768 345.357 198.256C344.845 197.744 344.589 196.992 344.589 196V169.168C344.589 168.176 344.845 167.424 345.357 166.912C345.869 166.4 346.589 166.144 347.517 166.144C348.477 166.144 349.213 166.4 349.725 166.912C350.237 167.424 350.493 168.176 350.493 169.168V172.912L349.965 171.472C350.445 169.84 351.421 168.528 352.893 167.536C354.397 166.544 356.141 166.048 358.125 166.048C360.173 166.048 361.965 166.544 363.501 167.536C365.069 168.528 366.285 169.936 367.149 171.76C368.013 173.552 368.445 175.712 368.445 178.24C368.445 180.736 368.013 182.912 367.149 184.768C366.285 186.592 365.085 188 363.549 188.992C362.013 189.984 360.205 190.48 358.125 190.48C356.173 190.48 354.461 190 352.989 189.04C351.517 188.048 350.525 186.768 350.013 185.2H350.589V196C350.589 196.992 350.317 197.744 349.773 198.256C349.261 198.768 348.525 199.024 347.565 199.024ZM356.445 185.92C357.629 185.92 358.669 185.632 359.565 185.056C360.461 184.48 361.149 183.632 361.629 182.512C362.141 181.36 362.397 179.936 362.397 178.24C362.397 175.68 361.853 173.776 360.765 172.528C359.677 171.248 358.237 170.608 356.445 170.608C355.261 170.608 354.221 170.896 353.325 171.472C352.429 172.016 351.725 172.864 351.213 174.016C350.733 175.136 350.493 176.544 350.493 178.24C350.493 180.768 351.037 182.688 352.125 184C353.213 185.28 354.653 185.92 356.445 185.92ZM374.393 190.24C373.689 190.24 373.097 190.048 372.617 189.664C372.169 189.248 371.929 188.72 371.897 188.08C371.897 187.44 372.169 186.768 372.713 186.064L380.489 176.464V179.296L373.193 170.32C372.617 169.616 372.345 168.944 372.377 168.304C372.409 167.664 372.649 167.152 373.097 166.768C373.577 166.352 374.169 166.144 374.873 166.144C375.609 166.144 376.217 166.272 376.697 166.528C377.209 166.784 377.673 167.184 378.089 167.728L383.849 175.12H381.737L387.545 167.728C387.993 167.184 388.457 166.784 388.937 166.528C389.417 166.272 390.009 166.144 390.713 166.144C391.449 166.144 392.041 166.352 392.489 166.768C392.937 167.184 393.161 167.712 393.161 168.352C393.193 168.992 392.921 169.664 392.345 170.368L385.097 179.248V176.56L392.873 186.064C393.449 186.736 393.721 187.392 393.689 188.032C393.657 188.672 393.401 189.2 392.921 189.616C392.473 190.032 391.881 190.24 391.145 190.24C390.441 190.24 389.849 190.112 389.369 189.856C388.889 189.6 388.425 189.2 387.977 188.656L381.737 180.784H383.753L377.561 188.656C377.145 189.168 376.697 189.568 376.217 189.856C375.737 190.112 375.129 190.24 374.393 190.24Z" fill="black"/>
<path d="M43.64 258.32C42.8133 258.32 42.1733 258.093 41.72 257.64C41.2933 257.16 41.08 256.507 41.08 255.68V232.12C41.08 231.267 41.2933 230.613 41.72 230.16C42.1733 229.707 42.8133 229.48 43.64 229.48C44.4667 229.48 45.0933 229.707 45.52 230.16C45.9733 230.613 46.2 231.267 46.2 232.12V241.56H60.72V232.12C60.72 231.267 60.9333 230.613 61.36 230.16C61.8133 229.707 62.4533 229.48 63.28 229.48C64.1067 229.48 64.7333 229.707 65.16 230.16C65.6133 230.613 65.84 231.267 65.84 232.12V255.68C65.84 256.507 65.6133 257.16 65.16 257.64C64.7333 258.093 64.1067 258.32 63.28 258.32C62.4533 258.32 61.8133 258.093 61.36 257.64C60.9333 257.16 60.72 256.507 60.72 255.68V245.84H46.2V255.68C46.2 256.507 45.9867 257.16 45.56 257.64C45.1333 258.093 44.4933 258.32 43.64 258.32ZM80.3775 258.4C78.9375 258.4 77.4442 258.213 75.8975 257.84C74.3508 257.467 73.0042 256.907 71.8575 256.16C71.3242 255.813 70.9642 255.413 70.7775 254.96C70.5908 254.507 70.5375 254.08 70.6175 253.68C70.7242 253.253 70.9242 252.893 71.2175 252.6C71.5375 252.307 71.9242 252.133 72.3775 252.08C72.8575 252.027 73.3775 252.147 73.9375 252.44C75.0308 253.027 76.0842 253.453 77.0975 253.72C78.1108 253.96 79.1508 254.08 80.2175 254.08C81.3908 254.08 82.3775 253.92 83.1775 253.6C83.9775 253.28 84.5775 252.8 84.9775 252.16C85.4042 251.52 85.6175 250.747 85.6175 249.84C85.6175 248.507 85.1642 247.52 84.2575 246.88C83.3775 246.213 82.0842 245.88 80.3775 245.88H77.8175C77.0708 245.88 76.4975 245.693 76.0975 245.32C75.7242 244.947 75.5375 244.427 75.5375 243.76C75.5375 243.093 75.7242 242.573 76.0975 242.2C76.4975 241.827 77.0708 241.64 77.8175 241.64H79.8975C80.9108 241.64 81.7775 241.48 82.4975 241.16C83.2175 240.813 83.7775 240.333 84.1775 239.72C84.5775 239.107 84.7775 238.36 84.7775 237.48C84.7775 236.253 84.3642 235.32 83.5375 234.68C82.7375 234.04 81.5642 233.72 80.0175 233.72C79.0308 233.72 78.0975 233.84 77.2175 234.08C76.3642 234.293 75.4175 234.707 74.3775 235.32C73.8975 235.613 73.4308 235.733 72.9775 235.68C72.5508 235.627 72.1908 235.453 71.8975 235.16C71.6042 234.867 71.4042 234.52 71.2975 234.12C71.1908 233.693 71.2175 233.267 71.3775 232.84C71.5375 232.387 71.8708 232 72.3775 231.68C73.5242 230.933 74.7908 230.373 76.1775 230C77.5642 229.6 78.9908 229.4 80.4575 229.4C82.4042 229.4 84.0708 229.707 85.4575 230.32C86.8442 230.907 87.8975 231.76 88.6175 232.88C89.3642 233.973 89.7375 235.307 89.7375 236.88C89.7375 238 89.5242 239.027 89.0975 239.96C88.6708 240.867 88.0708 241.64 87.2975 242.28C86.5242 242.92 85.5908 243.373 84.4975 243.64V243.16C86.4175 243.48 87.9108 244.28 88.9775 245.56C90.0442 246.813 90.5775 248.387 90.5775 250.28C90.5775 251.933 90.1642 253.373 89.3375 254.6C88.5108 255.827 87.3375 256.773 85.8175 257.44C84.2975 258.08 82.4842 258.4 80.3775 258.4ZM97.9219 258.2C97.0152 258.2 96.2819 257.92 95.7219 257.36C95.1885 256.8 94.9219 256.08 94.9219 255.2C94.9219 254.347 95.1885 253.653 95.7219 253.12C96.2819 252.56 97.0152 252.28 97.9219 252.28C98.8552 252.28 99.5752 252.56 100.082 253.12C100.615 253.653 100.882 254.347 100.882 255.2C100.882 256.08 100.615 256.8 100.082 257.36C99.5752 257.92 98.8552 258.2 97.9219 258.2ZM97.9219 244.16C97.0152 244.16 96.2819 243.88 95.7219 243.32C95.1885 242.76 94.9219 242.053 94.9219 241.2C94.9219 240.32 95.1885 239.613 95.7219 239.08C96.2819 238.52 97.0152 238.24 97.9219 238.24C98.8552 238.24 99.5752 238.52 100.082 239.08C100.615 239.613 100.882 240.32 100.882 241.2C100.882 242.053 100.615 242.76 100.082 243.32C99.5752 243.88 98.8552 244.16 97.9219 244.16ZM129.643 258.32C128.843 258.32 128.229 258.107 127.803 257.68C127.376 257.227 127.163 256.587 127.163 255.76V240.64C127.163 239.813 127.376 239.187 127.803 238.76C128.229 238.333 128.829 238.12 129.603 238.12C130.376 238.12 130.976 238.333 131.403 238.76C131.829 239.187 132.043 239.813 132.043 240.64V243.36L131.603 242.36C132.189 240.947 133.096 239.88 134.323 239.16C135.576 238.413 136.989 238.04 138.563 238.04C140.136 238.04 141.429 238.333 142.443 238.92C143.456 239.507 144.216 240.4 144.723 241.6C145.229 242.773 145.483 244.267 145.483 246.08V255.76C145.483 256.587 145.269 257.227 144.843 257.68C144.416 258.107 143.803 258.32 143.003 258.32C142.203 258.32 141.576 258.107 141.123 257.68C140.696 257.227 140.483 256.587 140.483 255.76V246.32C140.483 244.8 140.189 243.693 139.603 243C139.043 242.307 138.163 241.96 136.963 241.96C135.496 241.96 134.323 242.427 133.443 243.36C132.589 244.267 132.163 245.48 132.163 247V255.76C132.163 257.467 131.323 258.32 129.643 258.32ZM157.641 258.4C156.014 258.4 154.668 258.107 153.601 257.52C152.534 256.907 151.734 256 151.201 254.8C150.694 253.6 150.441 252.107 150.441 250.32V240.64C150.441 239.787 150.654 239.16 151.081 238.76C151.508 238.333 152.121 238.12 152.921 238.12C153.721 238.12 154.334 238.333 154.761 238.76C155.214 239.16 155.441 239.787 155.441 240.64V250.4C155.441 251.787 155.721 252.813 156.281 253.48C156.841 254.147 157.734 254.48 158.961 254.48C160.294 254.48 161.388 254.027 162.241 253.12C163.094 252.187 163.521 250.96 163.521 249.44V240.64C163.521 239.787 163.734 239.16 164.161 238.76C164.588 238.333 165.201 238.12 166.001 238.12C166.801 238.12 167.414 238.333 167.841 238.76C168.294 239.16 168.521 239.787 168.521 240.64V255.76C168.521 257.467 167.708 258.32 166.081 258.32C165.308 258.32 164.708 258.107 164.281 257.68C163.854 257.227 163.641 256.587 163.641 255.76V252.72L164.201 253.92C163.641 255.36 162.788 256.467 161.641 257.24C160.521 258.013 159.188 258.4 157.641 258.4ZM176.205 258.32C175.405 258.32 174.792 258.107 174.365 257.68C173.938 257.227 173.725 256.587 173.725 255.76V240.64C173.725 239.813 173.938 239.187 174.365 238.76C174.792 238.333 175.392 238.12 176.165 238.12C176.938 238.12 177.538 238.333 177.965 238.76C178.392 239.187 178.605 239.813 178.605 240.64V243.36L178.165 242.36C178.752 240.947 179.658 239.88 180.885 239.16C182.138 238.413 183.552 238.04 185.125 238.04C186.698 238.04 187.992 238.333 189.005 238.92C190.018 239.507 190.778 240.4 191.285 241.6C191.792 242.773 192.045 244.267 192.045 246.08V255.76C192.045 256.587 191.832 257.227 191.405 257.68C190.978 258.107 190.365 258.32 189.565 258.32C188.765 258.32 188.138 258.107 187.685 257.68C187.258 257.227 187.045 256.587 187.045 255.76V246.32C187.045 244.8 186.752 243.693 186.165 243C185.605 242.307 184.725 241.96 183.525 241.96C182.058 241.96 180.885 242.427 180.005 243.36C179.152 244.267 178.725 245.48 178.725 247V255.76C178.725 257.467 177.885 258.32 176.205 258.32ZM199.603 258.28C198.803 258.28 198.19 258.04 197.763 257.56C197.337 257.08 197.123 256.413 197.123 255.56V240.88C197.123 240 197.337 239.333 197.763 238.88C198.19 238.4 198.803 238.16 199.603 238.16C200.403 238.16 201.017 238.4 201.443 238.88C201.897 239.333 202.123 240 202.123 240.88V255.56C202.123 256.413 201.91 257.08 201.483 257.56C201.057 258.04 200.43 258.28 199.603 258.28ZM199.603 234.44C198.67 234.44 197.937 234.213 197.403 233.76C196.897 233.28 196.643 232.627 196.643 231.8C196.643 230.947 196.897 230.293 197.403 229.84C197.937 229.387 198.67 229.16 199.603 229.16C200.563 229.16 201.297 229.387 201.803 229.84C202.31 230.293 202.563 230.947 202.563 231.8C202.563 232.627 202.31 233.28 201.803 233.76C201.297 234.213 200.563 234.44 199.603 234.44ZM216.279 258.4C214.545 258.4 213.092 258.107 211.919 257.52C210.772 256.933 209.919 256.08 209.359 254.96C208.799 253.813 208.519 252.4 208.519 250.72V242.2H206.439C205.799 242.2 205.305 242.04 204.959 241.72C204.612 241.373 204.439 240.907 204.439 240.32C204.439 239.707 204.612 239.24 204.959 238.92C205.305 238.6 205.799 238.44 206.439 238.44H208.519V234.8C208.519 233.973 208.732 233.347 209.159 232.92C209.612 232.493 210.239 232.28 211.039 232.28C211.839 232.28 212.452 232.493 212.879 232.92C213.305 233.347 213.519 233.973 213.519 234.8V238.44H217.759C218.399 238.44 218.892 238.6 219.239 238.92C219.585 239.24 219.759 239.707 219.759 240.32C219.759 240.907 219.585 241.373 219.239 241.72C218.892 242.04 218.399 242.2 217.759 242.2H213.519V250.44C213.519 251.72 213.799 252.68 214.359 253.32C214.919 253.96 215.825 254.28 217.079 254.28C217.532 254.28 217.932 254.24 218.279 254.16C218.625 254.08 218.932 254.027 219.199 254C219.519 253.973 219.785 254.08 219.999 254.32C220.212 254.533 220.319 254.987 220.319 255.68C220.319 256.213 220.225 256.693 220.039 257.12C219.879 257.52 219.572 257.8 219.119 257.96C218.772 258.067 218.319 258.16 217.759 258.24C217.199 258.347 216.705 258.4 216.279 258.4ZM231.395 258.4C229.368 258.4 227.608 257.987 226.115 257.16C224.622 256.333 223.462 255.16 222.635 253.64C221.808 252.093 221.395 250.28 221.395 248.2C221.395 246.627 221.622 245.227 222.075 244C222.555 242.747 223.235 241.68 224.115 240.8C224.995 239.893 226.048 239.213 227.275 238.76C228.502 238.28 229.875 238.04 231.395 238.04C233.422 238.04 235.182 238.453 236.675 239.28C238.168 240.107 239.328 241.28 240.155 242.8C240.982 244.32 241.395 246.12 241.395 248.2C241.395 249.773 241.155 251.187 240.675 252.44C240.222 253.693 239.555 254.773 238.675 255.68C237.795 256.56 236.742 257.24 235.515 257.72C234.288 258.173 232.915 258.4 231.395 258.4ZM231.395 254.6C232.382 254.6 233.248 254.36 233.995 253.88C234.742 253.4 235.315 252.693 235.715 251.76C236.142 250.8 236.355 249.613 236.355 248.2C236.355 246.067 235.902 244.48 234.995 243.44C234.088 242.373 232.888 241.84 231.395 241.84C230.408 241.84 229.542 242.08 228.795 242.56C228.048 243.013 227.462 243.72 227.035 244.68C226.635 245.613 226.435 246.787 226.435 248.2C226.435 250.307 226.888 251.907 227.795 253C228.702 254.067 229.902 254.6 231.395 254.6ZM270.301 258.32C269.501 258.32 268.875 258.107 268.421 257.68C267.968 257.227 267.741 256.587 267.741 255.76V252.64H257.861C257.035 252.64 256.368 252.467 255.861 252.12C255.381 251.773 255.141 251.227 255.141 250.48C255.141 250.053 255.248 249.587 255.461 249.08C255.701 248.573 256.115 247.907 256.701 247.08L267.661 231.2C268.035 230.64 268.448 230.213 268.901 229.92C269.355 229.627 269.875 229.48 270.461 229.48C271.155 229.48 271.728 229.693 272.181 230.12C272.635 230.52 272.861 231.16 272.861 232.04V248.4H274.821C275.595 248.4 276.168 248.587 276.541 248.96C276.941 249.307 277.141 249.827 277.141 250.52C277.141 251.213 276.941 251.747 276.541 252.12C276.168 252.467 275.595 252.64 274.821 252.64H272.861V255.76C272.861 256.587 272.635 257.227 272.181 257.68C271.728 258.107 271.101 258.32 270.301 258.32ZM267.741 248.4V235.92H268.901L259.461 249.76V248.4H267.741ZM289.766 258.4C286.432 258.4 283.886 257.147 282.126 254.64C280.366 252.107 279.486 248.507 279.486 243.84C279.486 240.693 279.872 238.053 280.646 235.92C281.446 233.76 282.606 232.133 284.126 231.04C285.672 229.947 287.552 229.4 289.766 229.4C293.126 229.4 295.672 230.627 297.406 233.08C299.166 235.533 300.046 239.107 300.046 243.8C300.046 246.92 299.646 249.573 298.846 251.76C298.072 253.92 296.926 255.573 295.406 256.72C293.886 257.84 292.006 258.4 289.766 258.4ZM289.766 254.2C291.579 254.2 292.912 253.36 293.766 251.68C294.646 250 295.086 247.373 295.086 243.8C295.086 240.227 294.646 237.64 293.766 236.04C292.912 234.413 291.579 233.6 289.766 233.6C287.979 233.6 286.646 234.413 285.766 236.04C284.886 237.64 284.446 240.227 284.446 243.8C284.446 247.373 284.886 250 285.766 251.68C286.646 253.36 287.979 254.2 289.766 254.2ZM306.83 265.52C306.03 265.52 305.417 265.307 304.99 264.88C304.563 264.453 304.35 263.827 304.35 263V240.64C304.35 239.813 304.563 239.187 304.99 238.76C305.417 238.333 306.017 238.12 306.79 238.12C307.59 238.12 308.203 238.333 308.63 238.76C309.057 239.187 309.27 239.813 309.27 240.64V243.76L308.83 242.56C309.23 241.2 310.043 240.107 311.27 239.28C312.523 238.453 313.977 238.04 315.63 238.04C317.337 238.04 318.83 238.453 320.11 239.28C321.417 240.107 322.43 241.28 323.15 242.8C323.87 244.293 324.23 246.093 324.23 248.2C324.23 250.28 323.87 252.093 323.15 253.64C322.43 255.16 321.43 256.333 320.15 257.16C318.87 257.987 317.363 258.4 315.63 258.4C314.003 258.4 312.577 258 311.35 257.2C310.123 256.373 309.297 255.307 308.87 254H309.35V263C309.35 263.827 309.123 264.453 308.67 264.88C308.243 265.307 307.63 265.52 306.83 265.52ZM314.23 254.6C315.217 254.6 316.083 254.36 316.83 253.88C317.577 253.4 318.15 252.693 318.55 251.76C318.977 250.8 319.19 249.613 319.19 248.2C319.19 246.067 318.737 244.48 317.83 243.44C316.923 242.373 315.723 241.84 314.23 241.84C313.243 241.84 312.377 242.08 311.63 242.56C310.883 243.013 310.297 243.72 309.87 244.68C309.47 245.613 309.27 246.787 309.27 248.2C309.27 250.307 309.723 251.907 310.63 253C311.537 254.067 312.737 254.6 314.23 254.6ZM329.187 258.2C328.6 258.2 328.107 258.04 327.707 257.72C327.333 257.373 327.133 256.933 327.107 256.4C327.107 255.867 327.333 255.307 327.787 254.72L334.267 246.72V249.08L328.187 241.6C327.707 241.013 327.48 240.453 327.507 239.92C327.533 239.387 327.733 238.96 328.107 238.64C328.507 238.293 329 238.12 329.587 238.12C330.2 238.12 330.707 238.227 331.107 238.44C331.533 238.653 331.92 238.987 332.267 239.44L337.067 245.6H335.307L340.147 239.44C340.52 238.987 340.907 238.653 341.307 238.44C341.707 238.227 342.2 238.12 342.787 238.12C343.4 238.12 343.893 238.293 344.267 238.64C344.64 238.987 344.827 239.427 344.827 239.96C344.853 240.493 344.627 241.053 344.147 241.64L338.107 249.04V246.8L344.587 254.72C345.067 255.28 345.293 255.827 345.267 256.36C345.24 256.893 345.027 257.333 344.627 257.68C344.253 258.027 343.76 258.2 343.147 258.2C342.56 258.2 342.067 258.093 341.667 257.88C341.267 257.667 340.88 257.333 340.507 256.88L335.307 250.32H336.987L331.827 256.88C331.48 257.307 331.107 257.64 330.707 257.88C330.307 258.093 329.8 258.2 329.187 258.2Z" fill="black"/>
</svg>
