<svg width="125" height="25" viewBox="0 0 125 25" fill="none" xmlns="http://www.w3.org/2000/svg">
<path d="M5.01562 1.25V24H0.34375V1.25H5.01562ZM13.5312 10.7031V24H9.03125V7.09375H13.25L13.5312 10.7031ZM12.875 14.9531H11.6562C11.6562 13.7031 11.8177 12.5781 12.1406 11.5781C12.4635 10.5677 12.9167 9.70833 13.5 9C14.0833 8.28125 14.776 7.73438 15.5781 7.35938C16.3906 6.97396 17.2969 6.78125 18.2969 6.78125C19.0885 6.78125 19.8125 6.89583 20.4688 7.125C21.125 7.35417 21.6875 7.71875 22.1562 8.21875C22.6354 8.71875 23 9.38021 23.25 10.2031C23.5104 11.026 23.6406 12.0312 23.6406 13.2188V24H19.1094V13.2031C19.1094 12.4531 19.0052 11.8698 18.7969 11.4531C18.5885 11.0365 18.2812 10.7448 17.875 10.5781C17.4792 10.401 16.9896 10.3125 16.4062 10.3125C15.8021 10.3125 15.276 10.4323 14.8281 10.6719C14.3906 10.9115 14.026 11.2448 13.7344 11.6719C13.4531 12.0885 13.2396 12.5781 13.0938 13.1406C12.9479 13.7031 12.875 14.3073 12.875 14.9531ZM36.2031 19.3281C36.2031 19.0052 36.1094 18.7135 35.9219 18.4531C35.7344 18.1927 35.3854 17.9531 34.875 17.7344C34.375 17.5052 33.651 17.2969 32.7031 17.1094C31.849 16.9219 31.0521 16.6875 30.3125 16.4062C29.5833 16.1146 28.9479 15.7656 28.4062 15.3594C27.875 14.9531 27.4583 14.474 27.1562 13.9219C26.8542 13.3594 26.7031 12.7188 26.7031 12C26.7031 11.2917 26.8542 10.625 27.1562 10C27.4688 9.375 27.9115 8.82292 28.4844 8.34375C29.0677 7.85417 29.776 7.47396 30.6094 7.20312C31.4531 6.92188 32.401 6.78125 33.4531 6.78125C34.9219 6.78125 36.1823 7.01562 37.2344 7.48438C38.2969 7.95312 39.1094 8.59896 39.6719 9.42188C40.2448 10.2344 40.5312 11.1615 40.5312 12.2031H36.0312C36.0312 11.7656 35.9375 11.375 35.75 11.0312C35.5729 10.6771 35.2917 10.401 34.9062 10.2031C34.5312 9.99479 34.0417 9.89062 33.4375 9.89062C32.9375 9.89062 32.5052 9.97917 32.1406 10.1562C31.776 10.3229 31.4948 10.5521 31.2969 10.8438C31.1094 11.125 31.0156 11.4375 31.0156 11.7812C31.0156 12.0417 31.0677 12.276 31.1719 12.4844C31.2865 12.6823 31.4688 12.8646 31.7188 13.0312C31.9688 13.1979 32.2917 13.3542 32.6875 13.5C33.0938 13.6354 33.5938 13.7604 34.1875 13.875C35.4062 14.125 36.4948 14.4531 37.4531 14.8594C38.4115 15.2552 39.1719 15.7969 39.7344 16.4844C40.2969 17.1615 40.5781 18.0521 40.5781 19.1562C40.5781 19.9062 40.4115 20.5938 40.0781 21.2188C39.7448 21.8438 39.2656 22.3906 38.6406 22.8594C38.0156 23.3177 37.2656 23.6771 36.3906 23.9375C35.526 24.1875 34.5521 24.3125 33.4688 24.3125C31.8958 24.3125 30.5625 24.0312 29.4688 23.4688C28.3854 22.9062 27.5625 22.1927 27 21.3281C26.4479 20.4531 26.1719 19.5573 26.1719 18.6406H30.4375C30.4583 19.2552 30.6146 19.75 30.9062 20.125C31.2083 20.5 31.5885 20.7708 32.0469 20.9375C32.5156 21.1042 33.0208 21.1875 33.5625 21.1875C34.1458 21.1875 34.6302 21.1094 35.0156 20.9531C35.401 20.7865 35.6927 20.5677 35.8906 20.2969C36.099 20.0156 36.2031 19.6927 36.2031 19.3281ZM51.7812 7.09375V10.2812H41.9375V7.09375H51.7812ZM44.375 2.92188H48.875V18.9062C48.875 19.3958 48.9375 19.7708 49.0625 20.0312C49.1979 20.2917 49.3958 20.474 49.6562 20.5781C49.9167 20.6719 50.2448 20.7188 50.6406 20.7188C50.9219 20.7188 51.1719 20.7083 51.3906 20.6875C51.6198 20.6562 51.8125 20.625 51.9688 20.5938L51.9844 23.9062C51.599 24.0312 51.1823 24.1302 50.7344 24.2031C50.2865 24.276 49.7917 24.3125 49.25 24.3125C48.2604 24.3125 47.3958 24.151 46.6562 23.8281C45.9271 23.4948 45.3646 22.9635 44.9688 22.2344C44.5729 21.5052 44.375 20.5469 44.375 19.3594V2.92188ZM63.4688 20.1875V12.6562C63.4688 12.1146 63.3802 11.651 63.2031 11.2656C63.026 10.8698 62.75 10.5625 62.375 10.3438C62.0104 10.125 61.5365 10.0156 60.9531 10.0156C60.4531 10.0156 60.0208 10.1042 59.6562 10.2812C59.2917 10.4479 59.0104 10.6927 58.8125 11.0156C58.6146 11.3281 58.5156 11.6979 58.5156 12.125H54.0156C54.0156 11.4062 54.1823 10.724 54.5156 10.0781C54.849 9.43229 55.3333 8.86458 55.9688 8.375C56.6042 7.875 57.3594 7.48438 58.2344 7.20312C59.1198 6.92188 60.1094 6.78125 61.2031 6.78125C62.5156 6.78125 63.6823 7 64.7031 7.4375C65.724 7.875 66.526 8.53125 67.1094 9.40625C67.7031 10.2812 68 11.375 68 12.6875V19.9219C68 20.849 68.0573 21.6094 68.1719 22.2031C68.2865 22.7865 68.4531 23.2969 68.6719 23.7344V24H64.125C63.9062 23.5417 63.7396 22.9688 63.625 22.2812C63.5208 21.5833 63.4688 20.8854 63.4688 20.1875ZM64.0625 13.7031L64.0938 16.25H61.5781C60.9844 16.25 60.4688 16.3177 60.0312 16.4531C59.5938 16.5885 59.2344 16.7812 58.9531 17.0312C58.6719 17.2708 58.4635 17.5521 58.3281 17.875C58.2031 18.1979 58.1406 18.5521 58.1406 18.9375C58.1406 19.3229 58.2292 19.6719 58.4062 19.9844C58.5833 20.2865 58.8385 20.526 59.1719 20.7031C59.5052 20.8698 59.8958 20.9531 60.3438 20.9531C61.0208 20.9531 61.6094 20.8177 62.1094 20.5469C62.6094 20.276 62.9948 19.9427 63.2656 19.5469C63.5469 19.151 63.6927 18.776 63.7031 18.4219L64.8906 20.3281C64.724 20.7552 64.4948 21.1979 64.2031 21.6562C63.9219 22.1146 63.5625 22.5469 63.125 22.9531C62.6875 23.349 62.1615 23.6771 61.5469 23.9375C60.9323 24.1875 60.2031 24.3125 59.3594 24.3125C58.2865 24.3125 57.3125 24.099 56.4375 23.6719C55.5729 23.2344 54.8854 22.6354 54.375 21.875C53.875 21.1042 53.625 20.2292 53.625 19.25C53.625 18.3646 53.7917 17.5781 54.125 16.8906C54.4583 16.2031 54.9479 15.625 55.5938 15.1562C56.25 14.6771 57.0677 14.3177 58.0469 14.0781C59.026 13.8281 60.1615 13.7031 61.4531 13.7031H64.0625ZM81 5.14062L74.8125 24H69.8281L78.2812 1.25H81.4531L81 5.14062ZM86.1406 24L79.9375 5.14062L79.4375 1.25H82.6406L91.1406 24H86.1406ZM85.8594 15.5312V19.2031H73.8438V15.5312H85.8594ZM102.953 20.3125V0H107.484V24H103.406L102.953 20.3125ZM92.2656 15.75V15.4219C92.2656 14.1302 92.4115 12.9583 92.7031 11.9062C92.9948 10.8438 93.4219 9.93229 93.9844 9.17188C94.5469 8.41146 95.2396 7.82292 96.0625 7.40625C96.8854 6.98958 97.8229 6.78125 98.875 6.78125C99.8646 6.78125 100.729 6.98958 101.469 7.40625C102.219 7.82292 102.854 8.41667 103.375 9.1875C103.906 9.94792 104.333 10.849 104.656 11.8906C104.979 12.9219 105.214 14.0521 105.359 15.2812V16C105.214 17.1771 104.979 18.2708 104.656 19.2812C104.333 20.2917 103.906 21.1771 103.375 21.9375C102.854 22.6875 102.219 23.2708 101.469 23.6875C100.719 24.1042 99.8438 24.3125 98.8438 24.3125C97.7917 24.3125 96.8542 24.099 96.0312 23.6719C95.2188 23.2448 94.5312 22.6458 93.9688 21.875C93.4167 21.1042 92.9948 20.1979 92.7031 19.1562C92.4115 18.1146 92.2656 16.9792 92.2656 15.75ZM96.7656 15.4219V15.75C96.7656 16.4479 96.8177 17.099 96.9219 17.7031C97.0365 18.3073 97.2188 18.8438 97.4688 19.3125C97.7292 19.7708 98.0625 20.1302 98.4688 20.3906C98.8854 20.6406 99.3906 20.7656 99.9844 20.7656C100.755 20.7656 101.391 20.5938 101.891 20.25C102.391 19.8958 102.771 19.4115 103.031 18.7969C103.302 18.1823 103.458 17.474 103.5 16.6719V14.625C103.469 13.9688 103.375 13.3802 103.219 12.8594C103.073 12.3281 102.854 11.875 102.562 11.5C102.281 11.125 101.927 10.8333 101.5 10.625C101.083 10.4167 100.589 10.3125 100.016 10.3125C99.4323 10.3125 98.9323 10.4479 98.5156 10.7188C98.099 10.9792 97.7604 11.3385 97.5 11.7969C97.25 12.2552 97.0625 12.7969 96.9375 13.4219C96.8229 14.0365 96.7656 14.7031 96.7656 15.4219ZM120.141 19.3281C120.141 19.0052 120.047 18.7135 119.859 18.4531C119.672 18.1927 119.323 17.9531 118.812 17.7344C118.312 17.5052 117.589 17.2969 116.641 17.1094C115.786 16.9219 114.99 16.6875 114.25 16.4062C113.521 16.1146 112.885 15.7656 112.344 15.3594C111.812 14.9531 111.396 14.474 111.094 13.9219C110.792 13.3594 110.641 12.7188 110.641 12C110.641 11.2917 110.792 10.625 111.094 10C111.406 9.375 111.849 8.82292 112.422 8.34375C113.005 7.85417 113.714 7.47396 114.547 7.20312C115.391 6.92188 116.339 6.78125 117.391 6.78125C118.859 6.78125 120.12 7.01562 121.172 7.48438C122.234 7.95312 123.047 8.59896 123.609 9.42188C124.182 10.2344 124.469 11.1615 124.469 12.2031H119.969C119.969 11.7656 119.875 11.375 119.688 11.0312C119.51 10.6771 119.229 10.401 118.844 10.2031C118.469 9.99479 117.979 9.89062 117.375 9.89062C116.875 9.89062 116.443 9.97917 116.078 10.1562C115.714 10.3229 115.432 10.5521 115.234 10.8438C115.047 11.125 114.953 11.4375 114.953 11.7812C114.953 12.0417 115.005 12.276 115.109 12.4844C115.224 12.6823 115.406 12.8646 115.656 13.0312C115.906 13.1979 116.229 13.3542 116.625 13.5C117.031 13.6354 117.531 13.7604 118.125 13.875C119.344 14.125 120.432 14.4531 121.391 14.8594C122.349 15.2552 123.109 15.7969 123.672 16.4844C124.234 17.1615 124.516 18.0521 124.516 19.1562C124.516 19.9062 124.349 20.5938 124.016 21.2188C123.682 21.8438 123.203 22.3906 122.578 22.8594C121.953 23.3177 121.203 23.6771 120.328 23.9375C119.464 24.1875 118.49 24.3125 117.406 24.3125C115.833 24.3125 114.5 24.0312 113.406 23.4688C112.323 22.9062 111.5 22.1927 110.938 21.3281C110.385 20.4531 110.109 19.5573 110.109 18.6406H114.375C114.396 19.2552 114.552 19.75 114.844 20.125C115.146 20.5 115.526 20.7708 115.984 20.9375C116.453 21.1042 116.958 21.1875 117.5 21.1875C118.083 21.1875 118.568 21.1094 118.953 20.9531C119.339 20.7865 119.63 20.5677 119.828 20.2969C120.036 20.0156 120.141 19.6927 120.141 19.3281Z" fill="#5452B7"/>
</svg>
