<svg width="110" height="23" viewBox="0 0 110 23" fill="none" xmlns="http://www.w3.org/2000/svg">
<path d="M6.352 13.72H3.504V23H0.72V0.599998H6.448C8.26133 0.599998 9.62667 1.00533 10.544 1.816C11.4827 2.60533 11.952 3.864 11.952 5.592V8.664C11.952 11.0747 10.992 12.5787 9.072 13.176L13.52 23H10.48L6.352 13.72ZM9.168 5.304C9.168 4.49333 8.976 3.90667 8.592 3.544C8.22933 3.18133 7.64267 3 6.832 3H3.504V11.32H6.832C7.64267 11.32 8.22933 11.1387 8.592 10.776C8.976 10.392 9.168 9.79467 9.168 8.984V5.304ZM22.305 23C20.4277 23 19.0517 22.6053 18.177 21.816C17.3023 21.0053 16.865 19.6933 16.865 17.88V12.12C16.865 10.2853 17.2597 8.97333 18.049 8.184C18.8383 7.39467 20.1503 7 21.985 7H22.849C24.3637 7 25.505 7.42667 26.273 8.28C27.0623 9.112 27.457 10.3387 27.457 11.96V16.12H19.585V18.52C19.585 19.1813 19.7877 19.6933 20.193 20.056C20.5983 20.4187 21.1957 20.6 21.985 20.6H26.433V23H22.305ZM24.801 13.72V11.32C24.801 10.7653 24.6197 10.3067 24.257 9.944C23.8943 9.58133 23.4357 9.4 22.881 9.4H21.665C20.897 9.4 20.353 9.58133 20.033 9.944C19.7343 10.2853 19.585 10.7973 19.585 11.48V13.72H24.801ZM36.4113 3C36.0699 3 35.7926 3.096 35.5793 3.288C35.3873 3.45867 35.2913 3.68267 35.2913 3.96V7H39.1633V9.4H35.2913V23H32.5713V9.4H30.4913V7H32.5713V4.12C32.5713 3.032 32.8806 2.17867 33.4993 1.56C34.1179 0.919999 34.9179 0.599998 35.8993 0.599998H39.4833V3H36.4113ZM46.9925 23C45.1152 23 43.7392 22.6053 42.8645 21.816C41.9898 21.0053 41.5525 19.6933 41.5525 17.88V12.12C41.5525 10.2853 41.9472 8.97333 42.7365 8.184C43.5258 7.39467 44.8378 7 46.6725 7H47.5365C49.0512 7 50.1925 7.42667 50.9605 8.28C51.7498 9.112 52.1445 10.3387 52.1445 11.96V16.12H44.2725V18.52C44.2725 19.1813 44.4752 19.6933 44.8805 20.056C45.2858 20.4187 45.8832 20.6 46.6725 20.6H51.1205V23H46.9925ZM49.4885 13.72V11.32C49.4885 10.7653 49.3072 10.3067 48.9445 9.944C48.5818 9.58133 48.1232 9.4 47.5685 9.4H46.3525C45.5845 9.4 45.0405 9.58133 44.7205 9.944C44.4218 10.2853 44.2725 10.7973 44.2725 11.48V13.72H49.4885ZM56.7788 7H59.3388V7.864C60.0428 7.288 60.8961 7 61.8988 7H64.2348V9.56H61.5788C60.8748 9.56 60.3521 9.79467 60.0108 10.264C59.6694 10.7333 59.4988 11.192 59.4988 11.64V23H56.7788V7ZM67.435 7H69.995V7.864C70.699 7.288 71.5523 7 72.555 7H74.891V9.56H72.235C71.531 9.56 71.0083 9.79467 70.667 10.264C70.3257 10.7333 70.155 11.192 70.155 11.64V23H67.435V7ZM87.375 23C87.0977 23 86.7883 22.9147 86.447 22.744C86.127 22.5733 85.8497 22.3387 85.615 22.04C85.1243 22.68 84.4737 23 83.663 23H81.455C79.8337 23 78.6497 22.68 77.903 22.04C77.1777 21.3787 76.815 20.2587 76.815 18.68V18.04C76.815 14.7333 78.3723 13.08 81.487 13.08H84.815V11.48C84.815 10.8187 84.6123 10.3067 84.207 9.944C83.8017 9.58133 83.2043 9.4 82.415 9.4H78.095V7H82.095C83.951 7 85.3163 7.40533 86.191 8.216C87.087 9.02667 87.535 10.328 87.535 12.12V19.8C87.535 20.12 87.6523 20.3653 87.887 20.536C88.143 20.6853 88.559 20.76 89.135 20.76V23H87.375ZM83.343 20.6C83.983 20.6 84.3883 20.4507 84.559 20.152C84.7297 19.8533 84.815 19.4693 84.815 19V15.48H81.455C80.9003 15.48 80.4417 15.6613 80.079 16.024C79.7163 16.3867 79.535 16.8453 79.535 17.4V19C79.535 19.5547 79.663 19.96 79.919 20.216C80.175 20.472 80.5803 20.6 81.135 20.6H83.343ZM95.5263 23C94.8009 23 94.1609 22.744 93.6063 22.232C93.0729 21.72 92.8063 20.9093 92.8063 19.8V0.599998H95.5263V19.64C95.5263 19.9813 95.6116 20.2267 95.7823 20.376C95.9529 20.5253 96.2409 20.6 96.6463 20.6H97.2863V23H95.5263ZM109.414 19C109.414 20.344 108.998 21.3467 108.166 22.008C107.356 22.6693 106.172 23 104.614 23H100.486V20.6H104.934C105.51 20.6 105.948 20.4827 106.246 20.248C106.545 19.992 106.694 19.6293 106.694 19.16V17.464C106.694 16.504 106.236 16.024 105.318 16.024H104.774C103.281 16.024 102.161 15.704 101.414 15.064C100.689 14.4027 100.326 13.368 100.326 11.96V11.032C100.326 9.60267 100.732 8.57867 101.542 7.96C102.353 7.32 103.548 7 105.126 7H108.774V9.4H104.806C104.273 9.4 103.846 9.528 103.526 9.784C103.206 10.0187 103.046 10.3707 103.046 10.84V11.992C103.046 12.4827 103.185 12.8453 103.462 13.08C103.761 13.3147 104.134 13.432 104.582 13.432H105.03C106.46 13.432 107.548 13.784 108.294 14.488C109.041 15.1707 109.414 16.1947 109.414 17.56V19Z" fill="#3D3B8E"/>
</svg>
