<svg width="114" height="36" viewBox="0 0 114 36" fill="none" xmlns="http://www.w3.org/2000/svg">
<path d="M8.352 18.72H5.504V28H2.72V5.6H8.448C10.2613 5.6 11.6267 6.00533 12.544 6.816C13.4827 7.60533 13.952 8.864 13.952 10.592V13.664C13.952 16.0747 12.992 17.5787 11.072 18.176L15.52 28H12.48L8.352 18.72ZM11.168 10.304C11.168 9.49333 10.976 8.90667 10.592 8.544C10.2293 8.18133 9.64267 8 8.832 8H5.504V16.32H8.832C9.64267 16.32 10.2293 16.1387 10.592 15.776C10.976 15.392 11.168 14.7947 11.168 13.984V10.304ZM24.305 28C22.4277 28 21.0517 27.6053 20.177 26.816C19.3023 26.0053 18.865 24.6933 18.865 22.88V17.12C18.865 15.2853 19.2597 13.9733 20.049 13.184C20.8383 12.3947 22.1503 12 23.985 12H24.849C26.3637 12 27.505 12.4267 28.273 13.28C29.0623 14.112 29.457 15.3387 29.457 16.96V21.12H21.585V23.52C21.585 24.1813 21.7877 24.6933 22.193 25.056C22.5983 25.4187 23.1957 25.6 23.985 25.6H28.433V28H24.305ZM26.801 18.72V16.32C26.801 15.7653 26.6197 15.3067 26.257 14.944C25.8943 14.5813 25.4357 14.4 24.881 14.4H23.665C22.897 14.4 22.353 14.5813 22.033 14.944C21.7343 15.2853 21.585 15.7973 21.585 16.48V18.72H26.801ZM38.4113 8C38.0699 8 37.7926 8.096 37.5793 8.288C37.3873 8.45867 37.2913 8.68267 37.2913 8.96V12H41.1633V14.4H37.2913V28H34.5713V14.4H32.4913V12H34.5713V9.12C34.5713 8.032 34.8806 7.17867 35.4993 6.56C36.1179 5.92 36.9179 5.6 37.8993 5.6H41.4833V8H38.4113ZM48.9925 28C47.1152 28 45.7392 27.6053 44.8645 26.816C43.9898 26.0053 43.5525 24.6933 43.5525 22.88V17.12C43.5525 15.2853 43.9472 13.9733 44.7365 13.184C45.5258 12.3947 46.8378 12 48.6725 12H49.5365C51.0512 12 52.1925 12.4267 52.9605 13.28C53.7498 14.112 54.1445 15.3387 54.1445 16.96V21.12H46.2725V23.52C46.2725 24.1813 46.4752 24.6933 46.8805 25.056C47.2858 25.4187 47.8832 25.6 48.6725 25.6H53.1205V28H48.9925ZM51.4885 18.72V16.32C51.4885 15.7653 51.3072 15.3067 50.9445 14.944C50.5818 14.5813 50.1232 14.4 49.5685 14.4H48.3525C47.5845 14.4 47.0405 14.5813 46.7205 14.944C46.4218 15.2853 46.2725 15.7973 46.2725 16.48V18.72H51.4885ZM58.7788 12H61.3388V12.864C62.0428 12.288 62.8961 12 63.8988 12H66.2348V14.56H63.5788C62.8748 14.56 62.3521 14.7947 62.0108 15.264C61.6694 15.7333 61.4988 16.192 61.4988 16.64V28H58.7788V12ZM69.435 12H71.995V12.864C72.699 12.288 73.5523 12 74.555 12H76.891V14.56H74.235C73.531 14.56 73.0083 14.7947 72.667 15.264C72.3257 15.7333 72.155 16.192 72.155 16.64V28H69.435V12ZM89.375 28C89.0977 28 88.7883 27.9147 88.447 27.744C88.127 27.5733 87.8497 27.3387 87.615 27.04C87.1243 27.68 86.4737 28 85.663 28H83.455C81.8337 28 80.6497 27.68 79.903 27.04C79.1777 26.3787 78.815 25.2587 78.815 23.68V23.04C78.815 19.7333 80.3723 18.08 83.487 18.08H86.815V16.48C86.815 15.8187 86.6123 15.3067 86.207 14.944C85.8017 14.5813 85.2043 14.4 84.415 14.4H80.095V12H84.095C85.951 12 87.3163 12.4053 88.191 13.216C89.087 14.0267 89.535 15.328 89.535 17.12V24.8C89.535 25.12 89.6523 25.3653 89.887 25.536C90.143 25.6853 90.559 25.76 91.135 25.76V28H89.375ZM85.343 25.6C85.983 25.6 86.3883 25.4507 86.559 25.152C86.7297 24.8533 86.815 24.4693 86.815 24V20.48H83.455C82.9003 20.48 82.4417 20.6613 82.079 21.024C81.7163 21.3867 81.535 21.8453 81.535 22.4V24C81.535 24.5547 81.663 24.96 81.919 25.216C82.175 25.472 82.5803 25.6 83.135 25.6H85.343ZM97.5263 28C96.8009 28 96.1609 27.744 95.6063 27.232C95.0729 26.72 94.8063 25.9093 94.8063 24.8V5.6H97.5263V24.64C97.5263 24.9813 97.6116 25.2267 97.7823 25.376C97.9529 25.5253 98.2409 25.6 98.6463 25.6H99.2863V28H97.5263ZM111.414 24C111.414 25.344 110.998 26.3467 110.166 27.008C109.356 27.6693 108.172 28 106.614 28H102.486V25.6H106.934C107.51 25.6 107.948 25.4827 108.246 25.248C108.545 24.992 108.694 24.6293 108.694 24.16V22.464C108.694 21.504 108.236 21.024 107.318 21.024H106.774C105.281 21.024 104.161 20.704 103.414 20.064C102.689 19.4027 102.326 18.368 102.326 16.96V16.032C102.326 14.6027 102.732 13.5787 103.542 12.96C104.353 12.32 105.548 12 107.126 12H110.774V14.4H106.806C106.273 14.4 105.846 14.528 105.526 14.784C105.206 15.0187 105.046 15.3707 105.046 15.84V16.992C105.046 17.4827 105.185 17.8453 105.462 18.08C105.761 18.3147 106.134 18.432 106.582 18.432H107.03C108.46 18.432 109.548 18.784 110.294 19.488C111.041 20.1707 111.414 21.1947 111.414 22.56V24Z" fill="white"/>
</svg>
